<svg width="50" height="39" viewBox="0 0 50 39" fill="none" xmlns="http://www.w3.org/2000/svg">
<path d="M42.3272 3.56353C39.1404 2.10132 35.723 1.02398 32.1499 0.406886C32.0848 0.394972 32.0198 0.424757 31.9863 0.48423C31.5468 1.26597 31.0599 2.2857 30.719 3.08726C26.876 2.51187 23.0525 2.51187 19.2883 3.08726C18.9472 2.26792 18.4427 1.26597 18.0012 0.48423C17.9677 0.42671 17.9027 0.396925 17.8377 0.406886C14.2666 1.02193 10.8492 2.09927 7.66033 3.56353C7.63269 3.57544 7.60906 3.59527 7.59334 3.62105C1.1113 13.3051 -0.664477 22.7512 0.206617 32.0801C0.210523 32.1257 0.236206 32.1694 0.271656 32.1972C4.54832 35.3379 8.69109 37.2446 12.7568 38.5085C12.8219 38.5283 12.8908 38.5045 12.9322 38.4509C13.8939 37.1376 14.7512 35.7527 15.4863 34.2963C15.5297 34.2111 15.4883 34.1098 15.3996 34.0761C14.0397 33.5603 12.7449 32.9313 11.4993 32.2171C11.4008 32.1596 11.3928 32.0187 11.4836 31.9512C11.7457 31.7548 12.0079 31.5504 12.2582 31.3441C12.3035 31.3064 12.3666 31.2985 12.4198 31.3222C20.6026 35.0583 29.4615 35.0583 37.5477 31.3222C37.601 31.2964 37.664 31.3045 37.7113 31.342C37.9617 31.5484 38.2238 31.7547 38.4879 31.9511C38.5785 32.0186 38.5725 32.1595 38.4741 32.217C37.2285 32.9452 35.9337 33.5602 34.5719 34.0741C34.4832 34.1078 34.4437 34.211 34.4872 34.2962C35.2381 35.7505 36.0954 37.1354 37.0393 38.4489C37.0788 38.5044 37.1497 38.5283 37.2147 38.5084C41.3002 37.2446 45.4429 35.3378 49.7196 32.1971C49.7571 32.1694 49.7807 32.1277 49.7846 32.0821C50.8272 21.2968 48.0385 11.9282 42.3921 3.623C42.3784 3.59527 42.3548 3.57544 42.3272 3.56353V3.56353ZM16.7085 26.3998C14.2449 26.3998 12.2149 24.138 12.2149 21.3603C12.2149 18.5827 14.2054 16.3209 16.7085 16.3209C19.231 16.3209 21.2414 18.6025 21.2019 21.3603C21.2019 24.138 19.2113 26.3998 16.7085 26.3998ZM33.3224 26.3998C30.859 26.3998 28.829 24.138 28.829 21.3603C28.829 18.5827 30.8195 16.3209 33.3224 16.3209C35.8451 16.3209 37.8553 18.6025 37.816 21.3603C37.816 24.138 35.8452 26.3998 33.3224 26.3998Z" fill="white"/>
</svg>
