<svg width="50" height="42" viewBox="0 0 50 42" fill="none" xmlns="http://www.w3.org/2000/svg">
<path d="M50 5.49688C48.1406 6.3125 46.1594 6.85312 44.0938 7.11562C46.2188 5.84687 47.8406 3.85312 48.6031 1.45C46.6219 2.63125 44.4344 3.46563 42.1031 3.93125C40.2219 1.92813 37.5406 0.6875 34.6156 0.6875C28.9406 0.6875 24.3719 5.29375 24.3719 10.9406C24.3719 11.7531 24.4406 12.5344 24.6094 13.2781C16.0875 12.8625 8.54688 8.77813 3.48125 2.55625C2.59687 4.09063 2.07812 5.84688 2.07812 7.7375C2.07812 11.2875 3.90625 14.4344 6.63125 16.2562C4.98438 16.225 3.36875 15.7469 2 14.9938C2 15.025 2 15.0656 2 15.1062C2 20.0875 5.55312 24.225 10.2125 25.1781C9.37812 25.4062 8.46875 25.5156 7.525 25.5156C6.86875 25.5156 6.20625 25.4781 5.58437 25.3406C6.9125 29.4 10.6813 32.3844 15.1625 32.4812C11.675 35.2094 7.24688 36.8531 2.45312 36.8531C1.6125 36.8531 0.80625 36.8156 0 36.7125C4.54062 39.6406 9.92188 41.3125 15.725 41.3125C34.5875 41.3125 44.9 25.6875 44.9 12.1437C44.9 11.6906 44.8844 11.2531 44.8625 10.8188C46.8969 9.375 48.6063 7.57188 50 5.49688Z" fill="white"/>
</svg>
