<svg width="128" height="139" viewBox="0 0 128 139" fill="none" xmlns="http://www.w3.org/2000/svg">
<path d="M39.3356 38.6488C40.2303 41.6916 41.822 44.4736 43.9819 46.7695C46.075 48.9663 48.5588 50.7445 51.3051 52.012C54.0164 53.2816 56.9073 54.1213 59.8767 54.5016C62.6194 54.8792 65.4075 54.8075 68.134 54.2891C70.464 53.8223 72.7862 52.962 74.6651 51.4374C74.8733 51.2694 75.0738 51.095 75.2677 50.9112C75.4177 50.7725 75.6159 51.0187 75.4648 51.1603C73.7121 52.8079 71.4333 53.8046 69.1476 54.3874C66.4361 55.0325 63.6402 55.2149 60.8758 54.9269C57.8798 54.6461 54.9464 53.907 52.1758 52.7348C49.3343 51.5539 46.7336 49.8566 44.5014 47.7263C42.2196 45.5324 40.4743 42.8305 39.402 39.832C39.2711 39.4604 39.1506 39.0792 39.0401 38.6982C38.9821 38.5016 39.2947 38.4517 39.352 38.6412L39.3356 38.6488Z" fill="#161616" stroke="white" stroke-width="2"/>
<path d="M95.8964 58.9957C92.1219 57.5583 88.3407 56.1358 84.553 54.7281C80.8117 53.3288 77.0707 51.9285 73.3301 50.5272C71.1963 49.7146 69.0599 48.9092 66.9209 48.1108C66.8817 48.0959 66.8499 48.0655 66.8327 48.0265C66.8155 47.9875 66.8142 47.9429 66.8291 47.9026C66.8439 47.8624 66.8738 47.8297 66.912 47.8118C66.9503 47.7939 66.9938 47.7922 67.0331 47.8071C70.8076 49.2445 74.5877 50.6666 78.3735 52.0736C82.1176 53.4716 85.8599 54.8713 89.6005 56.2726C91.7323 57.0844 93.8684 57.8908 96.0086 58.692C96.0478 58.7069 96.0795 58.7372 96.0968 58.7763C96.114 58.8153 96.1153 58.8599 96.1004 58.9001C96.0855 58.9404 96.0557 58.9731 96.0174 58.991C95.9792 59.0089 95.9356 59.0106 95.8964 58.9957Z" fill="#161616" stroke="white" stroke-width="2"/>
<path d="M86.8808 46.0394C81.6253 44.0377 76.3609 42.057 71.0877 40.0971C65.888 38.1513 60.6887 36.2045 55.4897 34.2568C52.5375 33.1508 49.5889 32.0382 46.6438 30.9188C46.6046 30.9039 46.5729 30.8735 46.5557 30.8345C46.5384 30.7955 46.5371 30.7509 46.552 30.7106C46.5669 30.6703 46.5967 30.6376 46.635 30.6197C46.6732 30.6018 46.7168 30.6001 46.756 30.6151C52.0115 32.6167 57.2749 34.5971 62.5461 36.5563C67.7458 38.502 72.9461 40.4492 78.1471 42.3977C81.0966 43.5049 84.0452 44.6176 86.993 45.7357C87.0322 45.7506 87.0639 45.7809 87.0811 45.82C87.0983 45.859 87.0997 45.9036 87.0848 45.9439C87.0699 45.9842 87.0401 46.0168 87.0018 46.0348C86.9636 46.0527 86.92 46.0544 86.8808 46.0394Z" fill="#161616" stroke="white" stroke-width="2"/>
<path d="M41.1327 72.9378C41.8727 72.0292 42.4326 70.9878 42.7821 69.8702C43.0529 68.93 43.12 67.944 42.9789 66.9785C42.686 64.9598 41.6128 63.1447 40.4567 61.5126C39.1671 59.6708 37.6821 57.9969 36.3214 56.227C35.0757 54.5816 33.865 52.817 33.2799 50.8111C33.0063 49.8981 32.9105 48.9397 32.9978 47.988C33.1115 46.9386 33.4424 45.9229 33.969 45.006C34.1119 44.7538 34.2644 44.512 34.4258 44.2735C34.5412 44.1028 34.7949 44.2895 34.6925 44.4618C34.0633 45.3552 33.6251 46.3686 33.4057 47.4377C33.2375 48.3823 33.2654 49.3502 33.4876 50.2809C33.9497 52.2814 35.1239 54.0528 36.3305 55.6767C37.6758 57.4783 39.1475 59.1607 40.4717 60.9645C41.6704 62.6092 42.804 64.4164 43.2259 66.4427C43.4275 67.3871 43.4389 68.3637 43.2594 69.3153C43.0289 70.408 42.5861 71.446 41.9564 72.37C41.7838 72.6292 41.6008 72.88 41.4076 73.1223C41.2826 73.2827 41.0248 73.0978 41.1409 72.9341L41.1327 72.9378Z" fill="#161616" stroke="white" stroke-width="2"/>
<path d="M38.9778 59.1846L26.5608 54.5282L22.8056 53.154C22.178 52.9594 21.5624 52.7286 20.9618 52.4626L20.8819 52.4326C20.8497 52.4202 20.8225 52.3975 20.8045 52.368C20.7865 52.3385 20.7787 52.3039 20.7822 52.2694C20.7857 52.2349 20.6894 52.4624 20.713 52.4369C20.7365 52.4114 20.8787 52.1342 20.9127 52.128C24.174 51.4507 27.3555 50.2878 30.0865 48.351C32.3305 46.772 34.1972 44.7524 35.8715 42.5893C37.5458 40.4262 39.1002 38.0888 40.8017 35.8985C41.6887 34.7166 42.6487 33.5915 43.6762 32.5299C44.5536 31.6588 45.5189 30.8412 46.4482 30.0474C49.8724 27.0923 53.5706 24.3419 57.8047 22.6934C62.3363 20.9286 67.208 20.6308 71.973 21.3469C75.0907 21.8418 78.1527 22.6315 81.1182 23.7055C81.4137 23.8125 82.4245 24.4019 83.2532 24.7637C85.0389 25.5432 87.1483 26.4046 88.7704 27.4896C93.6845 30.8694 97.721 35.3762 100.548 40.6397C102.049 43.3962 103.189 46.3373 103.94 49.3906C104.679 52.4453 104.868 55.5791 105.179 58.6941C105.49 61.809 105.7 64.9235 105.329 68.0345C104.91 71.5421 103.773 75.1067 101.795 78.0636C101.252 78.8698 100.647 79.6331 99.9873 80.3467C99.329 81.0585 98.6092 81.7098 97.9885 82.4562C96.9352 83.6733 96.1615 85.107 95.7226 86.6547C94.9566 89.5698 95.7407 92.5597 96.9254 95.2239C97.5715 96.635 98.2917 98.0103 99.083 99.3441L99.6958 100.403L99.9758 100.869C100.062 101.017 100.315 101.302 100.336 101.47C100.357 101.637 100.183 101.875 100.084 102.055C99.8968 102.389 99.7083 102.727 99.5179 103.06C98.1809 105.414 96.6948 107.681 95.0687 109.846C92.1329 113.698 88.6692 117.186 84.6429 119.874C80.8887 122.395 76.6893 124.168 72.2757 125.095C67.4745 126.099 62.5124 126.091 57.6803 125.401C51.8851 124.567 46.2619 122.788 40.8792 120.535C39.4445 119.933 37.9409 119.467 36.5432 118.794C34.4441 117.785 32.3519 116.804 30.4115 115.502C26.2363 112.702 22.7286 108.755 20.829 104.052C18.9295 99.3483 19.5389 94.1512 21.563 89.556C23.0221 86.334 25.0101 83.3778 27.4434 80.8113C29.8762 78.1983 32.6228 76.0598 35.9215 74.6588C42.4447 71.8834 50.2095 71.6574 56.7866 74.2463C62.0801 76.3334 67.1467 80.1711 69.7943 85.291C71.0056 87.5504 71.5234 90.1225 71.2831 92.6857C71.2783 92.729 71.2566 92.7688 71.2228 92.7962C71.1889 92.8237 71.1457 92.8367 71.1025 92.8322C71.0594 92.8277 71.0199 92.8063 70.9928 92.7725C70.9656 92.7387 70.953 92.6954 70.9578 92.6521C71.5988 86.8719 67.7439 81.7446 63.4291 78.403C58.156 74.3158 51.5504 72.3362 44.8795 72.844C41.191 73.0886 37.5858 74.0862 34.2852 75.7756C31.0974 77.446 28.4457 79.9497 26.1774 82.7264C22.0511 87.7673 18.8999 94.5711 20.2547 101.195C21.0166 104.904 23.2046 108.373 25.7341 111.109C27.9337 113.459 30.5152 115.417 33.37 116.9C34.6467 117.602 35.9626 118.23 37.3113 118.782C42.1082 120.646 46.8424 122.639 51.8522 123.895C56.862 125.152 61.9879 125.816 67.1264 125.466C71.6521 125.178 76.0869 124.023 80.1906 122.063C84.3204 120.022 88.0544 117.252 91.213 113.887C92.9367 112.068 94.5263 110.126 95.9689 108.076C96.7433 106.986 97.4796 105.872 98.1779 104.733C98.5423 104.145 98.896 103.551 99.2397 102.955C99.4028 102.677 99.5752 102.364 99.741 102.069C99.8358 101.94 99.9141 101.799 99.9741 101.65C100.008 101.452 99.8441 101.261 99.7349 101.095C96.9569 96.4527 93.4878 90.6814 95.935 85.1298C96.5824 83.7259 97.476 82.4488 98.5728 81.3596C99.9512 79.9422 101.248 78.5179 102.221 76.7785C103.949 73.6015 104.944 70.0799 105.132 66.4751C105.322 63.422 105.005 60.3762 104.7 57.3448C104.385 54.2488 104.123 51.21 103.276 48.2068C101.557 42.2528 98.401 36.8252 94.0853 32.4029C92.0787 30.3274 89.8243 28.5082 87.3726 26.9858C84.8301 25.417 82.0873 24.3239 79.2548 23.4316C74.0654 21.7746 68.5073 20.7611 63.0452 21.6092C58.643 22.3006 54.6097 24.2489 51.0058 26.8306C49.1179 28.2005 47.3042 29.6709 45.5725 31.2352C44.5303 32.1369 43.5503 33.1086 42.6393 34.1433C41.7186 35.2089 40.854 36.3227 40.0127 37.4554C36.8594 41.7121 33.9866 46.2814 29.4266 49.1744C26.8175 50.771 23.9449 51.8822 20.9481 52.454" stroke="white" stroke-width="2"/>
<path d="M102.657 24.6031C100.117 26.1357 97.2825 27.1159 94.338 27.4799C93.2042 27.6259 92.0577 27.6453 90.9196 27.5378C89.8443 27.4131 88.7814 27.1979 87.7422 26.8943C86.3564 26.4941 84.9657 25.8906 83.6305 25.3447C82.8286 25.0425 81.9776 24.6714 81.1738 24.3135C81.0214 24.2561 80.92 24.3552 80.853 24.1926C80.796 24.0257 80.801 23.8439 80.8672 23.6805C80.947 23.5229 81.0584 23.3834 81.1944 23.2708C81.3305 23.1583 81.4884 23.075 81.6581 23.0261C82.0257 22.9149 82.4019 22.8346 82.7829 22.7861C83.2071 22.717 83.6354 22.6495 84.0606 22.59C84.8974 22.4749 85.7359 22.3834 86.5763 22.3155C88.2754 22.1779 89.981 22.1374 91.6849 22.194C95.0634 22.307 98.4177 22.8106 101.681 23.6947C102.097 23.8057 102.51 23.9247 102.92 24.0517C103.184 24.1284 103.033 24.5294 102.769 24.4528C97.226 22.7846 91.408 22.2323 85.6512 22.8277C84.8589 22.9137 84.0661 23.0133 83.2819 23.139C82.8877 23.2011 82.4856 23.2602 82.0959 23.3468C81.7062 23.4335 81.169 23.6203 81.2648 24.0959L81.1301 23.9307C83.9077 25.1744 86.0308 26.3547 89.0353 26.9101C91.6359 27.3381 95.0631 27.1832 97.5786 26.398C99.2946 25.8694 100.94 25.1351 102.48 24.2111C102.72 24.0725 102.892 24.467 102.657 24.6031Z" fill="#161616" stroke="white" stroke-width="2"/>
</svg>
