<svg width="261" height="131" viewBox="0 0 261 131" fill="none" xmlns="http://www.w3.org/2000/svg">
<path d="M32.3679 79.8083C31.5464 79.9518 31.064 79.6129 30.9204 78.7914C30.9001 78.0068 31.7537 77.128 33.481 76.1548C34.4081 75.6134 35.452 74.9056 36.6129 74.0314C37.802 73.1523 39.0058 72.0225 40.2241 70.6421C41.6196 68.9388 42.2431 67.6622 42.0947 66.8124C41.9858 66.1893 41.5451 65.7554 40.7726 65.5109C40.0236 65.2331 39.0602 65.0657 37.8827 65.0087C36.7001 64.9234 35.4401 64.8954 34.1025 64.9248C31.8903 64.961 29.8308 64.8683 27.924 64.6468C26.0121 64.397 24.6715 63.7409 23.9021 62.6785C23.7245 62.3301 23.6074 62.1608 23.5507 62.1707C23.4374 62.1905 23.5178 63.4025 23.7918 65.8066L24.2569 69.9725C24.7043 70.3614 25.0236 70.6851 25.2147 70.9436C25.4292 71.1688 25.5661 71.4514 25.6255 71.7913C25.7146 72.3012 25.5469 72.9289 25.1225 73.6744C24.9639 73.9356 24.8593 74.1728 24.809 74.3859C24.6409 75.2618 24.1745 75.7665 23.4097 75.9002C22.3616 76.0833 21.5462 75.1749 20.9633 73.175C20.5594 71.6985 20.1478 69.8438 19.7285 67.6111L18.7994 63.0446C18.4027 61.2749 18.0831 59.6961 17.8406 58.3081C17.1577 54.3992 16.8728 51.5153 16.986 49.6566L16.9967 49.2169L16.9542 49.2243C16.9259 49.2292 16.8791 49.2958 16.814 49.4239C16.3244 50.2976 15.7114 50.7987 14.9749 50.9274C14.1818 51.066 13.4051 50.8806 12.6447 50.3712C11.8794 49.8335 11.4349 49.2106 11.3112 48.5025C11.2716 48.2759 11.277 48.056 11.3273 47.8429C11.3996 47.4216 11.5718 47.0704 11.8438 46.7894C12.1158 46.5083 12.596 46.2493 13.2843 46.0123C13.9677 45.747 14.9535 45.458 16.2416 45.1454C17.5248 44.8044 19.7243 44.3618 22.8401 43.8175C24.1431 43.5898 25.3778 43.3887 26.5441 43.2142C27.7387 43.0347 28.6101 42.9262 29.1581 42.8889C31.9503 42.6638 33.9273 42.7854 35.0891 43.2538C36.2461 43.6939 36.9136 44.4238 37.0917 45.4435C37.2006 46.0667 37.1154 46.6654 36.8363 47.2396C36.5805 47.7805 36.2164 48.3695 35.7439 49.0067C35.2997 49.6389 34.887 50.3678 34.5058 51.1933C33.0745 54.3624 31.227 56.9036 28.9634 58.8169L28.548 59.196L29.2575 59.2472C33.9727 59.5035 38.186 60.5626 41.8973 62.4246C43.8344 63.4873 44.939 64.7977 45.2112 66.3556C45.4586 67.7718 45.0754 69.2545 44.0617 70.8036C43.0713 72.3193 41.8129 73.7214 40.2866 75.0097C38.7652 76.3263 37.2492 77.4231 35.7385 78.3C34.2562 79.1719 33.1327 79.6747 32.3679 79.8083ZM23.2328 59.5991C23.2611 59.5942 23.3011 59.5726 23.3528 59.5344C23.3996 59.4678 23.5048 59.3181 23.6684 59.0852C23.8604 58.8473 24.0775 58.5029 24.3198 58.0519C25.6128 55.9287 27.1921 53.8576 29.0578 51.8386C30.5999 50.1389 31.5473 48.8787 31.9002 48.0581C32.0894 47.4705 32.1667 47.0775 32.1321 46.8792C32.0678 46.511 30.1378 46.6584 26.3421 47.3215C25.1525 47.5293 24.1925 47.7992 23.4624 48.1311C22.7556 48.4297 22.2998 49.0785 22.0948 50.0776C21.8849 51.0484 21.973 52.6385 22.359 54.8479L23.2328 59.5991ZM49.6423 41.1492L49.125 41.1958C48.4155 41.1446 47.8537 40.9363 47.4396 40.5708C47.0205 40.177 46.7689 39.7393 46.6848 39.2577C46.6006 38.7762 46.6797 38.3099 46.922 37.859C47.1594 37.3796 47.5748 37.0006 48.1683 36.7217C48.305 36.6687 48.4275 36.6181 48.5358 36.57C48.6676 36.4886 48.9144 36.3141 49.2763 36.0465C49.6382 35.779 50.287 35.3154 51.2226 34.6557C51.8997 34.1871 52.4931 33.9083 53.003 33.8192C53.5978 33.7153 54.0807 33.8061 54.4517 34.0915C54.8227 34.377 55.0477 34.7464 55.1269 35.1996C55.2407 35.8511 54.9955 36.5361 54.3913 37.2546C54.0726 37.6022 53.7846 37.959 53.5275 38.325C53.2703 38.6911 53.0057 39.0146 52.7337 39.2956C52.4851 39.5434 52.1625 39.7019 51.766 39.7712C51.5394 39.8108 51.3301 39.9495 51.1381 40.1874C50.9462 40.4252 50.7351 40.6373 50.5049 40.8234C50.2698 40.9813 49.9822 41.0899 49.6423 41.1492ZM54.8221 71.5508L54.2974 71.5549C54.0892 71.5329 53.8878 71.4659 53.6931 71.354C53.5267 71.2371 53.2594 71.2108 52.8912 71.2752C52.2631 71.3557 51.7746 71.1491 51.4256 70.6555C51.1099 70.1852 50.8655 69.4544 50.6923 68.463C50.4795 67.245 50.3206 65.6673 50.2157 63.7299C49.9208 59.8699 49.5334 56.5661 49.0534 53.8185C48.7614 52.1473 48.4411 50.481 48.0925 48.8197L48.1478 48.6349C48.2826 47.7357 48.8032 47.2069 49.7096 47.0485C49.9079 47.0139 50.1388 46.9151 50.4023 46.7524C50.7975 46.5082 51.2358 46.344 51.7174 46.2599C52.5671 46.1114 53.376 46.481 54.1441 47.3684C54.4499 47.7821 54.6349 48.173 54.6992 48.5412C54.7586 48.8811 54.7422 49.2051 54.6501 49.5131C54.553 49.7928 54.4202 50.0349 54.2516 50.2395C54.1064 50.4108 54.0079 50.5156 53.9562 50.5538L53.8861 50.6536L54.3289 54.6921C54.8698 59.7934 55.3234 63.3922 55.6896 65.4883C55.8331 66.3097 55.972 66.8546 56.1065 67.123C56.236 67.3631 56.3305 67.6531 56.3898 67.993C56.5136 68.7012 56.4532 69.4415 56.2086 70.214C55.9641 70.9864 55.5019 71.4321 54.8221 71.5508ZM65.9608 70.2179C65.8475 70.2377 65.7009 70.2341 65.5211 70.2071C65.1946 70.1766 64.9051 70.0228 64.6523 69.7459C64.2135 69.2388 63.5912 67.348 62.7857 64.0734C61.0769 57.1328 59.9726 52.232 59.4728 49.3711C59.3491 48.663 59.26 48.1531 59.2056 47.8415C59.1795 47.525 59.1707 47.3076 59.1792 47.1894C59.1828 47.0428 59.1747 46.9128 59.1549 46.7995C58.7955 45.578 58.5713 44.7122 58.4823 44.2024C58.3833 43.6359 58.3608 43.1727 58.4147 42.813C58.4636 42.425 58.6383 42.088 58.9386 41.802C59.2623 41.4828 59.6366 41.286 60.0615 41.2118C60.2881 41.1722 60.508 41.1776 60.7211 41.2279C60.9625 41.2733 61.1541 41.2836 61.2957 41.2589C61.5223 41.2193 61.7784 41.014 62.0638 40.6431C62.508 40.0108 63.1302 39.4789 63.9305 39.0472C67.7683 37.1215 71.0327 35.9237 73.7236 35.4535C76.3862 34.9884 78.4581 35.1519 79.9392 35.9439C81.4487 36.7311 82.3469 37.9461 82.6339 39.589C83.0298 41.8551 82.2628 44.7329 80.3329 48.2226C79.1052 50.2177 77.8028 52.0361 76.4257 53.6778C75.077 55.3145 74.3481 56.4052 74.2389 56.9497C74.2479 57.5027 74.0605 58.0171 73.6765 58.4928C73.3209 58.9636 72.9646 59.347 72.6077 59.6428C72.2457 59.9104 72.0722 60.0867 72.0871 60.1716L72.1869 60.2418C72.5799 60.3191 73.2419 60.3494 74.1731 60.3326C77.5246 60.3017 81.794 60.6797 86.9813 61.4665L90.2537 61.9019C91.3513 62.002 92.0873 62.1216 92.4618 62.2605C92.8647 62.3944 93.1082 62.7022 93.1923 63.1837C93.321 63.9202 92.9888 64.3577 92.1957 64.4962C91.6575 64.5903 91.1186 64.5968 90.579 64.5159C86.0671 64.2533 82.1243 64.2416 78.7509 64.4806C76.0671 64.6576 73.8358 64.6679 72.0571 64.5116C70.3067 64.3504 69.1226 63.7545 68.5047 62.724C68.3037 62.4089 67.8527 62.1666 67.1517 61.9971C66.877 61.9284 66.6232 61.8121 66.3903 61.6485C66.3053 61.6634 66.2932 61.9282 66.3539 62.443C66.4097 62.9295 66.5539 63.8384 66.7865 65.1697C67.0141 66.4727 67.1516 67.4265 67.1988 68.0313C67.2744 68.631 67.2587 69.0425 67.1517 69.2655C67.0497 69.5168 66.8669 69.7239 66.6035 69.8867C66.3733 70.0728 66.1591 70.1832 65.9608 70.2179ZM79.3421 40.2954C79.427 40.2806 79.4596 40.2165 79.4398 40.1032C79.425 40.0182 79.3893 39.9807 79.3326 39.9906C79.2193 40.0104 79.1701 40.0628 79.1849 40.1478C79.2047 40.2611 79.2571 40.3103 79.3421 40.2954ZM65.4706 57.3869L65.5684 57.1946C66.1267 56.0463 67.3533 54.2119 69.2482 51.6916C70.5772 49.9415 71.9004 48.0757 73.2181 46.0941C74.5358 44.1125 75.444 42.3776 75.943 40.8893C76.0351 40.5813 76.0664 40.3423 76.0367 40.1723C75.9971 39.9457 75.7001 39.7495 75.1457 39.5836C73.9901 39.3185 72.8458 39.2849 71.7128 39.4828C70.5231 39.6906 69.4998 40.0154 68.6429 40.457C67.786 40.8986 67.3649 41.1619 67.3798 41.2468C67.3946 41.3318 67.3368 41.5025 67.2065 41.7588C67.1044 42.0101 66.9008 42.2646 66.5955 42.5223C66.3136 42.7467 65.9319 42.9009 65.4504 42.985L64.7631 43.0613C64.5932 43.091 64.459 43.1582 64.3605 43.263C64.2621 43.3678 64.0935 43.5724 63.8547 43.8768C63.4708 44.3525 63.3011 44.7179 63.3457 44.9728L63.4624 45.3902C63.497 45.5885 63.4757 45.8842 63.3984 46.2771C63.3247 46.5235 63.3249 46.8592 63.3992 47.2841L65.4706 57.3869ZM68.1052 59.6851C68.1335 59.6801 68.147 59.5902 68.1456 59.4153C68.1676 59.2071 68.264 58.84 68.4348 58.3139L68.3923 58.3213C68.5164 57.8618 68.8897 57.242 69.5124 56.4618C70.3405 55.3539 70.7446 54.7433 70.7249 54.63C70.6682 54.6399 70.483 54.8328 70.1692 55.2087C69.4998 56.0554 68.9037 56.9039 68.3808 57.7542C67.8863 58.5995 67.6564 59.1213 67.691 59.3196C67.7009 59.3762 67.7416 59.4421 67.8131 59.5172C67.8846 59.5922 67.982 59.6482 68.1052 59.6851ZM99.7719 70.3097C99.1204 70.4235 98.561 70.2293 98.0938 69.7271C97.7696 69.3751 97.5704 68.9866 97.4962 68.5617C97.3824 67.9103 97.6127 67.1403 98.1873 66.2518C98.7618 65.3632 99.3465 64.867 99.9413 64.7631C100.281 64.7037 100.544 64.7017 100.728 64.757C100.941 64.8073 101.107 64.8367 101.225 64.8453C102.18 63.6276 103.103 62.474 103.992 61.3845C105.556 59.4766 106.935 57.6742 108.127 55.9772C109.319 54.2802 110.201 52.5644 110.774 50.8297C111.347 49.095 111.457 47.2221 111.106 45.211C110.651 42.605 109.596 40.1621 107.943 37.8822C106.83 36.3545 105.414 35.5217 103.697 35.3838L103.392 35.3933C102.967 35.4675 102.659 35.6236 102.467 35.8614C102.275 36.0993 101.967 36.2554 101.542 36.3296C101.372 36.3593 101.154 36.3681 100.89 36.3559C100.265 36.2899 99.7574 36.0575 99.3666 35.6587C99.0042 35.255 98.7809 34.8124 98.6968 34.3308C98.6473 34.0476 98.6428 33.7711 98.6832 33.5013C98.6733 33.4446 98.4843 33.4485 98.116 33.5128C97.7478 33.5771 97.512 33.6475 97.4086 33.724C97.3335 33.7955 97.3257 34.0012 97.385 34.3411L97.6131 35.3959C97.8798 36.2542 98.2259 37.9013 98.6515 40.3373C99.0573 42.66 99.4773 45.8997 99.9116 50.0565C100.319 54.393 100.584 56.9154 100.708 57.6235C100.768 57.9634 100.847 58.1684 100.947 58.2386C101.384 58.5708 101.658 59.0485 101.767 59.6717C101.88 60.3231 101.81 61.0068 101.556 61.7226C101.13 62.9645 100.422 63.6721 99.4307 63.8453C98.2693 64.0482 97.2803 63.316 96.4636 61.6489C95.9725 60.5087 95.3039 57.5168 94.4577 52.6731C93.7847 48.8208 93.219 46.0006 92.7607 44.2125C92.3307 42.4194 91.7887 39.9016 91.1346 36.659L91.7361 35.5907L91.357 35.1752C90.9613 34.7481 90.7288 34.3363 90.6596 33.9397C90.4864 32.9483 91.0276 32.0365 92.2833 31.2041C93.5341 30.3434 95.1367 29.7423 97.0912 29.4009C98.7624 29.1089 100.551 29.0737 102.458 29.2952C104.394 29.5117 106.246 30.0929 108.017 31.0387C109.783 31.9562 111.335 33.3198 112.672 35.1294C114.01 36.939 114.932 39.2884 115.436 42.1776C115.973 45.5866 115.695 48.9192 114.6 52.1755C113.55 55.1903 112.174 57.9264 110.473 60.3837C108.771 62.8411 107.104 64.8254 105.47 66.3367C103.842 67.8764 102.702 68.7031 102.051 68.8169C101.654 68.8862 101.327 69.1039 101.07 69.4699C100.629 69.9555 100.197 70.2354 99.7719 70.3097ZM132.287 62.0022L128.101 62.6022C126.759 62.7781 125.758 62.8946 125.097 62.9518C124.08 62.9834 123.314 62.8546 122.796 62.5656C122.284 62.3048 121.422 62.1343 120.211 62.0539C118.707 61.9664 117.612 61.8804 116.926 61.7959C116.24 61.7115 115.78 61.5874 115.547 61.4238C115.314 61.2601 115.109 61.0041 114.931 60.6557C114.754 60.3072 114.474 59.8745 114.092 59.3574C113.709 58.8404 113.474 58.327 113.385 57.8171C113.271 57.1656 113.375 56.5928 113.697 56.0986C113.991 55.6094 114.478 55.3054 115.158 55.1867C115.498 55.1273 115.862 55.1221 116.25 55.171C117.661 55.3917 118.47 56.0968 118.678 57.2865C118.732 57.5981 118.757 57.8272 118.754 57.9737C118.75 58.1203 118.753 58.2219 118.763 58.2786L119.515 58.3224C120.783 58.3928 123.49 58.1826 127.637 57.6917C130.267 57.378 131.748 57.2507 132.08 57.3095L132.605 57.3054C132.916 57.251 133.263 57.1467 133.644 56.9924C134.026 56.8381 134.335 56.6821 134.57 56.5243L134.972 56.3226C134.962 56.2659 134.784 56.1657 134.438 56.0218C133.679 55.6874 132.484 54.9474 130.854 53.8019C129.219 52.6281 127.538 50.8637 125.814 48.5088C124.084 46.1255 122.7 42.9666 121.662 39.032L121.558 38.4372C121.38 37.4175 121.332 36.1415 121.415 34.6091C121.521 33.0436 121.835 31.5 122.357 29.9784C122.908 28.4519 123.758 27.1358 124.908 26.03C126.326 24.7898 127.842 24.0287 129.457 23.7467C131.383 23.4102 133.189 23.7222 134.874 24.6829C136.588 25.6387 137.628 27.1646 137.995 29.2607L138.032 29.4731C138.19 30.3795 138.425 31.0537 138.735 31.4957C139.046 31.9376 139.281 32.6118 139.439 33.5182C139.648 34.8828 139.665 36.0622 139.488 37.0563C139.311 38.0504 139.114 38.8438 138.897 39.4364C138.702 39.9958 138.613 40.4054 138.63 40.6653C138.642 41.0717 138.528 41.5879 138.287 42.2138C137.846 43.1958 137.342 43.7363 136.775 43.8353C136.237 43.9293 135.71 43.671 135.195 43.0605C134.708 42.445 134.371 41.5991 134.182 40.5227C134.098 40.0412 134.054 39.5381 134.05 39.0133C134.046 38.4886 134.024 38.113 133.985 37.8864C133.95 37.6881 133.892 37.5231 133.811 37.3914C133.595 36.9912 133.447 36.5645 133.368 36.1113C133.195 35.1199 133.215 34.0656 133.428 32.9482C133.642 31.8309 133.667 30.8049 133.504 29.8701C133.355 29.0203 132.912 28.3242 132.176 27.7815C131.981 27.6696 131.657 27.6532 131.204 27.7324C130.609 27.8363 129.897 28.1066 129.068 28.5433C128.24 28.9799 127.446 29.6149 126.687 30.4481C125.956 31.2763 125.389 32.2948 124.987 33.5034C124.614 34.7071 124.568 36.1162 124.85 37.7308C125.226 39.8835 126.38 42.3966 128.313 45.2699C129.847 47.3664 131.405 49.0206 132.989 50.2326C134.573 51.4447 135.998 52.4215 137.267 53.1633C138.178 53.7046 138.922 54.2022 139.498 54.6563C140.102 55.1054 140.448 55.5849 140.537 56.0948C140.646 56.7179 140.312 57.4769 139.534 58.3717C138.784 59.2616 137.795 60.0328 136.566 60.6853C135.978 60.9925 135.38 61.243 134.771 61.4368C134.191 61.6257 133.363 61.8142 132.287 62.0022ZM167.697 54.3711C167.385 54.4255 167.09 54.4042 166.81 54.3071C165.718 53.7389 164.663 50.5373 163.643 44.7022C163.361 43.0876 163.106 41.5414 162.877 40.0635L162.518 37.7617L162.426 37.734C162.364 37.7156 162.22 37.6387 161.992 37.5034C161.764 37.3681 161.526 37.1761 161.278 36.9275C161.059 36.674 160.914 36.3489 160.845 35.9523C160.771 35.5275 160.815 35.1111 160.977 34.7033C161.139 34.2955 161.416 33.9553 161.806 33.6828C161.938 33.6014 161.995 33.4308 161.979 33.1709C161.993 32.5846 161.767 30.7852 161.299 27.7728C161.185 27.1213 161.07 26.6305 160.954 26.3005C160.838 25.9705 160.723 25.728 160.608 25.5729C160.493 25.4177 160.369 25.2934 160.236 25.1999C160.131 25.1015 160.005 24.963 159.857 24.7845C159.733 24.5728 159.621 24.1836 159.522 23.6171C159.428 23.0789 159.358 22.2593 159.311 21.1581C157.864 21.0607 157.046 20.4738 156.858 19.3974C156.784 18.9725 156.845 18.5679 157.04 18.1834C157.236 17.799 157.508 17.518 157.856 17.3403C158.205 17.1627 158.589 17.0226 159.009 16.92C159.452 16.7842 159.883 16.5776 160.302 16.3001C160.72 16.0227 161.099 15.8542 161.439 15.7949C161.892 15.7157 162.264 15.753 162.553 15.9067C162.871 16.0555 163.099 16.1908 163.237 16.3127C163.37 16.4062 163.468 16.4621 163.529 16.4806C169.022 15.842 172.878 15.3581 175.098 15.0288C176.321 14.8443 177.249 14.726 177.882 14.6738C178.538 14.5883 179.018 14.5774 179.321 14.6412C179.624 14.7051 179.897 14.8471 180.14 15.0674C180.454 15.3628 180.646 15.7087 180.715 16.1053C180.789 16.5302 180.686 16.9423 180.406 17.3416L180.218 17.7685C180.084 18.1714 179.867 18.6033 179.568 19.0641C179.269 19.525 178.837 19.805 178.27 19.9039C177.959 19.9584 177.587 19.9211 177.156 19.7921C176.578 19.6595 175.26 19.7147 173.2 19.9577C171.141 20.2007 169.248 20.4731 167.52 20.775C165.565 21.1164 164.527 21.3562 164.405 21.4942C164.378 21.6741 164.686 24.7728 165.329 30.7905L165.604 33.3695C169.267 32.6129 171.904 31.9186 173.516 31.2868C174.416 30.9252 175.149 30.6949 175.716 30.596C176.679 30.4277 177.433 30.7338 177.978 31.5143C178.054 31.6177 178.166 31.7587 178.314 31.9372C178.486 32.0824 178.653 32.2867 178.816 32.5502C179.002 32.7804 179.122 33.0512 179.176 33.3628C179.463 35.0057 177.638 36.1711 173.701 36.8589C171.917 37.1707 170.216 37.3801 168.6 37.4873C167.736 37.5508 167.119 37.6147 166.751 37.679C166.553 37.7136 166.447 37.7759 166.433 37.8659C166.415 37.9275 166.595 39.2095 166.974 41.7121L167.704 46.1383L168.023 46.2138C168.321 46.2493 168.679 46.3765 169.097 46.5955C169.51 46.7861 169.78 47.2496 169.909 47.9861C169.991 48.7891 169.719 49.6539 169.093 50.5807C168.859 50.9134 168.801 51.4197 168.92 52.0995C168.979 52.4394 168.994 52.7726 168.963 53.099C168.938 53.4538 168.775 53.7741 168.474 54.0601C168.239 54.218 167.98 54.3216 167.697 54.3711ZM197.779 47.5395C196.362 47.787 195.411 47.9386 194.925 47.9944C194.027 48.0345 193.281 47.9457 192.689 47.7282C192.096 47.5106 191.374 47.053 190.522 46.3552C190.075 45.9664 189.753 45.6285 189.557 45.3417C189.356 45.0265 189.216 44.6423 189.137 44.1891L188.655 42.4343C186.141 33.3868 184.433 26.2854 183.532 21.1301C183.221 19.3456 183.032 17.8461 182.965 16.6317C182.956 16.0787 183.094 15.6167 183.38 15.2457C183.665 14.8747 184.021 14.6521 184.445 14.5779C184.87 14.5037 185.302 14.6327 185.739 14.9649C186.2 15.2639 186.573 15.8117 186.858 16.6084C188.567 21.7101 189.782 26.3287 190.505 30.4643C191.005 33.3252 191.29 35.6252 191.36 37.3643C191.449 38.5455 191.569 39.5609 191.717 40.4107C191.935 41.657 192.347 42.6796 192.953 43.4786C194.02 43.2339 195.336 42.9163 196.903 42.5259C198.493 42.1022 200.012 41.6909 201.46 41.2919C202.931 40.8597 204 40.5417 204.665 40.338C205.768 39.9701 206.631 39.7317 207.254 39.6228C207.764 39.5338 208.159 39.5378 208.439 39.6349C208.713 39.7036 208.944 39.8531 209.13 40.0833C209.316 40.3135 209.434 40.5702 209.484 40.8535C209.587 41.4483 209.369 41.9535 208.829 42.369C208.674 42.4836 208.609 42.6992 208.635 43.0158C208.666 43.3606 208.638 43.7012 208.551 44.0375C208.321 44.895 207.244 45.5794 205.319 46.0908C203.691 46.4628 201.178 46.9457 197.779 47.5395ZM220.875 56.0272L220.485 56.0515C219.884 55.9522 219.412 55.6699 219.068 55.2046C218.752 54.7343 218.495 54.2683 218.298 53.8065C218.134 53.3682 217.963 53.0622 217.787 52.8887C217.458 52.5083 217.063 51.5848 216.603 50.1182C216.175 48.675 215.855 47.3444 215.643 46.1264C215.474 45.1633 215.429 44.4853 215.506 44.0923L214.85 40.8355C214.736 40.184 214.649 39.6009 214.588 39.0861C214.522 38.5429 214.518 38.0182 214.575 37.5119C214.556 37.3986 214.427 37.246 214.189 37.054C213.851 36.7919 213.343 36.1364 212.663 35.0875C211.984 34.0386 210.922 32.2245 209.479 29.6452C207.782 26.614 206.34 24.1221 205.152 22.1695C204.084 20.4003 203.25 18.9697 202.651 17.8776C202.047 16.7572 201.683 15.843 201.559 15.1348C201.391 14.1717 201.699 13.4319 202.485 12.9152C202.818 12.6526 203.155 12.4916 203.495 12.4322C204.033 12.3382 204.549 12.4523 205.043 12.7747C205.561 13.0637 206.06 13.4144 206.541 13.8266C206.95 14.1638 207.352 14.4585 207.746 14.7107C208.658 15.252 209.173 15.8625 209.292 16.5423C209.376 17.0238 209.33 17.426 209.153 17.7489C209.004 18.0668 208.894 18.2756 208.824 18.3755L208.712 18.4827C210.479 21.4141 211.535 23.1999 211.881 23.8401C212.048 24.1319 212.192 24.3695 212.312 24.5529C212.431 24.7364 212.622 24.9949 212.885 25.3285C213.553 26.1458 214.652 27.5886 216.181 29.6567C219.412 23.9255 221.708 20.1091 223.069 18.2075C223.443 17.6751 223.774 17.1502 224.063 16.6326C224.352 16.1151 224.774 15.268 225.327 14.0913C225.964 12.7248 226.432 11.8111 226.731 11.3502C226.965 11.0175 227.188 10.7888 227.399 10.6643C227.639 10.5348 227.921 10.2229 228.243 9.72876C228.907 8.85373 229.551 8.36178 230.174 8.25292C230.656 8.16879 231.08 8.25531 231.446 8.51245C231.812 8.7696 232.037 9.13894 232.121 9.62048C232.255 10.3853 231.641 12.0541 230.281 14.627C229.462 16.2879 228.548 17.9071 227.539 19.4845C226.778 20.6392 226.21 21.5702 225.838 22.2775C225.255 23.2842 224.347 25.4423 223.116 28.7516C222.004 31.748 221.335 33.8498 221.108 35.0571C221.058 35.2702 221.003 35.455 220.943 35.6115C220.882 35.7679 220.685 35.9775 220.352 36.2401L219.479 37.0056L219.874 39.5199C219.983 40.1431 220.112 40.6313 220.261 40.9847C220.406 41.3098 220.552 41.8972 220.7 42.747C221.037 44.6731 221.08 45.9208 220.829 46.4901C220.774 46.6749 220.793 47.0363 220.887 47.5745C221.031 48.396 221.268 49.42 221.599 50.6465C221.935 51.9014 222.162 52.8687 222.281 53.5485L222.335 54.1083C222.344 54.6613 222.201 55.095 221.906 55.4093C221.615 55.752 221.272 55.9579 220.875 56.0272ZM38.0298 127.021C37.7749 127.065 37.5076 127.039 37.2279 126.942C36.6254 126.668 36.1649 126.121 35.8465 125.3C35.6491 124.839 35.458 124.58 35.2732 124.525C34.8986 124.386 34.6268 124.083 34.4577 123.617C34.2936 123.178 34.1471 122.591 34.0185 121.854L33.8107 120.665C33.5929 119.418 33.2432 117.918 32.7615 116.163C31.2193 111.178 30.2279 107.425 29.7875 104.904C29.5203 103.375 29.3741 102.203 29.3488 101.39C29.3519 100.573 29.3712 100.015 29.4067 99.7165C29.4421 99.4184 29.4475 99.1985 29.4228 99.0569C29.403 98.9436 29.3457 98.866 29.2508 98.8242C29.1793 98.7491 28.5345 98.818 27.3165 99.0308C24.5123 99.5207 21.1818 100.424 17.3251 101.74C15.4817 102.383 14.1918 102.769 13.4553 102.897C12.9454 102.986 12.5815 102.992 12.3634 102.913C11.6993 102.62 11.3177 102.191 11.2188 101.624C11.1099 101.001 11.3749 100.429 12.0137 99.909C12.7673 99.5438 17.6268 97.7024 26.5924 94.3847C36.4631 90.7337 42.2057 88.7672 43.8202 88.4852L44.1251 88.4757C44.6363 88.5615 44.9992 88.7171 45.2137 88.9423C45.4282 89.1675 45.5595 89.3343 45.6076 89.4427C45.6557 89.551 45.6822 89.6194 45.6872 89.6477L48.569 89.1005C49.4471 88.9471 50.1584 88.925 50.7029 89.0342C51.2424 89.1151 51.6208 89.443 51.838 90.0181L51.9622 90.478C52.1007 91.2711 51.6775 91.8559 50.6924 92.2323C49.7023 92.5804 48.1759 92.9493 46.1131 93.3388C43.4037 93.8705 39.8017 94.8063 35.3069 96.1462L34.8544 96.3128L35.4684 99.577L36.4408 105.143C36.7526 106.927 37.1548 109.397 37.6474 112.551C38.1634 115.672 38.5924 118.545 38.9344 121.171C39.3046 123.791 39.4327 125.36 39.3186 125.876C39.0259 126.54 38.5963 126.922 38.0298 127.021ZM62.7039 118.769C62.3639 118.829 62.0474 118.855 61.7543 118.848C61.3145 118.837 60.8224 118.777 60.2779 118.668C59.7667 118.582 59.3213 118.456 58.9418 118.288C58.5907 118.116 58.0349 117.775 57.2745 117.266C56.5425 116.752 55.8055 116.209 55.0636 115.638C54.3217 115.067 53.7744 114.608 53.4219 114.261C51.3336 111.999 50.0767 109.65 49.6512 107.214C49.0722 103.9 49.8156 100.719 51.8813 97.6729C52.1101 97.3119 52.3666 96.8584 52.6507 96.3125C53.0233 95.6052 53.4594 94.8431 53.9589 94.0261C54.4583 93.2091 55.0459 92.4788 55.7216 91.8354C56.3973 91.1919 57.1743 90.7934 58.0523 90.64C58.4206 90.5757 58.7987 90.568 59.1867 90.617C59.5698 90.6377 59.9455 90.6158 60.3137 90.5515L62.0483 90.2047C63.3796 89.9721 64.8393 90.1403 66.4275 90.7094C68.623 91.581 70.3398 92.8865 71.5778 94.626C72.8391 96.3322 73.6529 98.2334 74.0191 100.329C74.4694 102.907 74.2867 105.537 73.4708 108.219C72.6784 110.868 71.3345 113.117 69.4391 114.966C67.0167 117.14 64.7716 118.408 62.7039 118.769ZM62.8249 115.202C63.6747 115.053 64.5181 114.702 65.3553 114.147C67.3434 112.661 68.7842 110.716 69.6779 108.312C70.5998 105.904 70.8554 103.524 70.4447 101.173C70.0884 99.1334 69.202 97.3179 67.7856 95.7264C67.3516 95.2476 66.9024 94.932 66.438 94.7796C65.9735 94.6272 65.373 94.6154 64.6365 94.744L63.9992 94.8554C63.6027 94.9246 63.2585 95.0431 62.9667 95.2109C62.6983 95.3453 62.5088 95.5974 62.3982 95.967C62.2827 96.3082 62.1056 96.6311 61.8669 96.9355C61.6515 97.2067 61.4238 97.407 61.1837 97.5365C60.6186 97.8104 60.2133 98.5817 59.9679 99.8506C59.7509 101.114 59.6337 102.449 59.6163 103.853C59.5939 105.229 59.6163 106.275 59.6833 106.994L59.8338 108.106C60.0367 109.267 60.3335 110.047 60.7243 110.446C61.1101 110.816 61.4305 110.979 61.6854 110.935C61.7704 110.92 61.8621 110.86 61.9606 110.755C62.0873 110.646 62.2591 110.543 62.4758 110.446C62.7159 110.317 62.9492 110.232 63.1758 110.193C63.634 110.142 64.096 110.28 64.5618 110.607C65.0277 110.935 65.3359 111.362 65.4866 111.891C65.6054 112.571 65.4285 113.229 64.956 113.866C64.4786 114.475 63.8291 114.851 63.0077 114.995C62.0729 115.158 60.9882 114.88 59.7535 114.162C58.3042 113.218 57.3644 111.514 56.9338 109.05C56.6617 107.492 56.5828 105.871 56.6973 104.187C56.8069 102.475 56.9628 100.945 57.165 99.5959C57.3955 98.2421 57.5746 97.2621 57.7022 96.656L57.7979 96.2014C57.7003 95.8098 57.5382 95.6338 57.3116 95.6734C56.9717 95.7328 56.5626 96.3151 56.0843 97.4203C55.6344 98.5206 55.2979 99.9367 55.0751 101.669C54.8473 103.372 54.9016 105.187 55.2381 107.113C55.4559 108.36 55.8344 109.607 56.3736 110.856C56.9411 112.099 57.7137 113.263 58.6912 114.348C59.0487 114.723 59.6088 115.005 60.3713 115.193C61.129 115.352 61.9468 115.355 62.8249 115.202ZM106.565 115.223L102.378 115.823C101.037 115.999 100.036 116.115 99.3746 116.172C98.3585 116.204 97.5916 116.075 97.0741 115.786C96.5615 115.525 95.6998 115.355 94.4889 115.275C92.9849 115.187 91.8899 115.101 91.2037 115.017C90.5176 114.932 90.0581 114.808 89.8252 114.644C89.5922 114.481 89.387 114.225 89.2093 113.876C89.0317 113.528 88.7518 113.095 88.3695 112.578C87.9873 112.061 87.7517 111.548 87.6626 111.038C87.5488 110.386 87.653 109.813 87.9754 109.319C88.2694 108.83 88.7563 108.526 89.4361 108.407C89.776 108.348 90.14 108.343 90.528 108.392C91.9385 108.612 92.7477 109.317 92.9555 110.507C93.0099 110.819 93.0353 111.048 93.0318 111.194C93.0282 111.341 93.0313 111.443 93.0412 111.499L93.7932 111.543C95.0607 111.613 97.7679 111.403 101.915 110.912C104.545 110.599 106.026 110.471 106.358 110.53L106.883 110.526C107.194 110.472 107.541 110.367 107.922 110.213C108.304 110.059 108.613 109.903 108.848 109.745L109.25 109.543C109.24 109.487 109.062 109.386 108.716 109.242C107.957 108.908 106.762 108.168 105.132 107.023C103.497 105.849 101.816 104.084 100.092 101.729C98.3616 99.3461 96.9778 96.1872 95.9402 92.2527L95.8362 91.6578C95.6581 90.6381 95.6103 89.3621 95.6929 87.8298C95.7989 86.2642 96.113 84.7206 96.6353 83.199C97.186 81.6725 98.0361 80.3564 99.1856 79.2507C100.604 78.0105 102.12 77.2493 103.734 76.9673C105.661 76.6308 107.467 76.9429 109.152 77.9036C110.866 78.8593 111.906 80.3852 112.273 82.4813L112.31 82.6937C112.468 83.6002 112.703 84.2744 113.013 84.7163C113.324 85.1583 113.559 85.8324 113.717 86.7389C113.926 88.1034 113.942 89.2828 113.766 90.2769C113.589 91.2711 113.392 92.0644 113.175 92.6571C112.98 93.2164 112.891 93.626 112.908 93.8859C112.92 94.2924 112.806 94.8085 112.565 95.4344C112.124 96.4164 111.62 96.9569 111.053 97.0559C110.515 97.1499 109.988 96.8917 109.473 96.2811C108.986 95.6656 108.648 94.8197 108.46 93.7433C108.376 93.2618 108.332 92.7587 108.328 92.234C108.324 91.7093 108.302 91.3336 108.263 91.107C108.228 90.9087 108.17 90.7437 108.089 90.612C107.873 90.2118 107.725 89.7852 107.646 89.3319C107.473 88.3405 107.493 87.2862 107.706 86.1689C107.92 85.0515 107.945 84.0255 107.782 83.0907C107.633 82.241 107.19 81.5448 106.453 81.0021C106.259 80.8902 105.935 80.8738 105.482 80.953C104.887 81.0569 104.175 81.3272 103.346 81.7639C102.518 82.2005 101.724 82.8355 100.965 83.6687C100.234 84.497 99.6671 85.5154 99.2653 86.724C98.8917 87.9277 98.846 89.3368 99.1281 90.9514C99.5042 93.1041 100.658 95.6172 102.591 98.4905C104.125 100.587 105.683 102.241 107.267 103.453C108.851 104.665 110.276 105.642 111.544 106.384C112.456 106.925 113.2 107.423 113.776 107.877C114.38 108.326 114.726 108.806 114.815 109.315C114.924 109.939 114.589 110.698 113.812 111.592C113.062 112.482 112.073 113.253 110.844 113.906C110.256 114.213 109.658 114.464 109.049 114.657C108.469 114.846 107.641 115.035 106.565 115.223ZM131.54 106.744C131.2 106.803 130.884 106.829 130.591 106.822C130.151 106.811 129.659 106.751 129.114 106.642C128.603 106.556 128.158 106.43 127.778 106.263C127.427 106.09 126.871 105.75 126.111 105.24C125.379 104.726 124.642 104.183 123.9 103.612C123.158 103.041 122.611 102.582 122.258 102.235C120.17 99.9731 118.913 97.6239 118.488 95.1879C117.909 91.8738 118.652 88.6936 120.718 85.6472C120.946 85.2861 121.203 84.8327 121.487 84.2868C121.86 83.5795 122.296 82.8174 122.795 82.0003C123.295 81.1833 123.882 80.4531 124.558 79.8096C125.234 79.1662 126.011 78.7677 126.889 78.6143C127.257 78.55 127.635 78.5423 128.023 78.5913C128.406 78.6119 128.782 78.5901 129.15 78.5257L130.885 78.1789C132.216 77.9463 133.676 78.1146 135.264 78.6837C137.459 79.5553 139.176 80.8608 140.414 82.6003C141.676 84.3065 142.489 86.2076 142.855 88.3037C143.306 90.8814 143.123 93.5112 142.307 96.1933C141.515 98.8421 140.171 101.091 138.275 102.94C135.853 105.115 133.608 106.383 131.54 106.744ZM131.661 103.176C132.511 103.028 133.355 102.676 134.192 102.121C136.18 100.635 137.621 98.6905 138.514 96.2867C139.436 93.878 139.692 91.4981 139.281 89.1471C138.925 87.1076 138.038 85.2922 136.622 83.7006C136.188 83.2218 135.739 82.9062 135.274 82.7539C134.81 82.6015 134.209 82.5896 133.473 82.7183L132.836 82.8296C132.439 82.8989 132.095 83.0174 131.803 83.1851C131.535 83.3196 131.345 83.5716 131.235 83.9412C131.119 84.2825 130.942 84.6054 130.703 84.9098C130.488 85.1809 130.26 85.3812 130.02 85.5108C129.455 85.7846 129.05 86.556 128.804 87.8248C128.587 89.0888 128.47 90.4228 128.453 91.827C128.43 93.2028 128.453 94.2497 128.52 94.9678L128.67 96.0799C128.873 97.2413 129.17 98.0213 129.561 98.4201C129.946 98.7906 130.267 98.9535 130.522 98.909C130.607 98.8941 130.698 98.8343 130.797 98.7296C130.924 98.6198 131.095 98.5169 131.312 98.4206C131.552 98.2911 131.786 98.2066 132.012 98.167C132.47 98.1161 132.932 98.2543 133.398 98.5816C133.864 98.9089 134.172 99.3367 134.323 99.865C134.442 100.545 134.265 101.203 133.792 101.84C133.315 102.449 132.666 102.825 131.844 102.969C130.909 103.132 129.825 102.855 128.59 102.136C127.141 101.193 126.201 99.4887 125.77 97.0244C125.498 95.4665 125.419 93.8456 125.534 92.1618C125.643 90.4496 125.799 88.9191 126.001 87.5702C126.232 86.2163 126.411 85.2364 126.539 84.6303L126.634 84.1757C126.537 83.7841 126.375 83.6081 126.148 83.6477C125.808 83.7071 125.399 84.2893 124.921 85.3946C124.471 86.4948 124.134 87.9109 123.911 89.6429C123.684 91.3465 123.738 93.1614 124.075 95.0876C124.292 96.3339 124.671 97.5814 125.21 98.8299C125.778 100.073 126.55 101.237 127.528 102.322C127.885 102.697 128.445 102.979 129.208 103.167C129.965 103.326 130.783 103.329 131.661 103.176ZM159.733 102.913C158.317 103.16 157.366 103.312 156.879 103.368C155.981 103.408 155.236 103.319 154.643 103.102C154.051 102.884 153.329 102.426 152.477 101.729C152.03 101.34 151.708 101.002 151.512 100.715C151.311 100.4 151.171 100.016 151.092 99.5626L150.61 97.8078C148.095 88.7603 146.388 81.6589 145.487 76.5036C145.175 74.7191 144.986 73.2196 144.92 72.0052C144.911 71.4522 145.049 70.9902 145.335 70.6192C145.62 70.2483 145.975 70.0257 146.4 69.9514C146.825 69.8772 147.256 70.0062 147.694 70.3384C148.155 70.6374 148.528 71.1852 148.813 71.9819C150.521 77.0836 151.737 81.7022 152.459 85.8378C152.959 88.6987 153.244 90.9987 153.315 92.7378C153.404 93.919 153.523 94.9344 153.672 95.7842C153.889 97.0305 154.302 98.0532 154.908 98.8521C155.975 98.6074 157.291 98.2898 158.858 97.8994C160.447 97.4757 161.966 97.0644 163.415 96.6654C164.886 96.2332 165.954 95.9152 166.619 95.7115C167.723 95.3436 168.586 95.1052 169.209 94.9963C169.719 94.9073 170.114 94.9113 170.393 95.0084C170.668 95.0771 170.899 95.2266 171.085 95.4568C171.271 95.687 171.389 95.9437 171.438 96.227C171.542 96.8218 171.324 97.327 170.783 97.7425C170.628 97.8572 170.564 98.0728 170.59 98.3893C170.621 98.7341 170.593 99.0747 170.506 99.4111C170.276 100.269 169.199 100.953 167.274 101.464C165.646 101.836 163.132 102.319 159.733 102.913ZM194.901 98.2142L193.696 98.3371C193.215 98.4212 192.784 98.3797 192.405 98.2125C192.025 98.0452 191.596 97.5948 191.118 96.861C190.672 96.1507 190.103 94.9803 189.41 93.3501C188.744 91.7149 187.866 89.4455 186.775 86.5419C186.69 86.5568 185.258 86.88 182.479 87.5115C179.699 88.143 178.314 88.4871 178.324 88.5438C178.329 88.5721 178.363 89.6024 178.426 91.6347C178.489 93.667 178.525 94.8722 178.533 95.2503L178.727 95.6104C179.004 96.029 179.178 96.4366 179.247 96.8331C179.337 97.5179 179.16 98.0889 178.714 98.5462C178.269 99.0035 177.777 99.2792 177.239 99.3732C176.587 99.487 175.971 99.3028 175.391 98.8204C174.943 98.4315 174.64 97.7838 174.482 96.8774C174.413 96.4809 174.381 96.0486 174.387 95.5805C174.395 94.791 174.395 93.9589 174.389 93.0844C174.405 92.1766 174.401 91.4037 174.378 90.7657C174.377 90.0944 174.374 89.7446 174.369 89.7163L174.164 89.7959C174.061 89.8724 173.818 89.9877 173.437 90.142C173.083 90.2913 172.666 90.408 172.184 90.4921C170.881 90.7197 169.926 90.3466 169.318 89.3728C169.222 89.1561 169.151 88.9203 169.107 88.6654C168.894 87.4474 169.386 86.5879 170.583 86.0869C171.318 85.7833 172.04 85.5697 172.748 85.446C173.456 85.3222 173.984 85.1716 174.333 84.9939C174.379 84.9274 174.434 84.3195 174.496 83.1703C174.875 76.653 175.697 71.5031 176.963 67.7208C177.704 65.7815 178.698 64.703 179.945 64.4853C180.369 64.411 180.764 64.4151 181.129 64.4973C181.522 64.5746 181.861 64.676 182.145 64.8014C182.453 64.8935 182.664 64.9297 182.777 64.9099C183.202 64.8357 183.776 65.0274 184.498 65.485C185.248 65.9377 185.69 66.5465 185.824 67.3113C185.878 67.6228 185.848 67.9493 185.732 68.2905C185.69 68.3854 185.679 68.4895 185.699 68.6028C185.714 68.6878 185.844 69.0153 186.09 69.5854C186.498 70.419 187.778 73.5669 189.929 79.0291L190.021 79.0568C190.671 79.2644 191.175 79.6434 191.533 80.1937C191.61 80.2971 191.804 80.3216 192.116 80.2672C192.399 80.2177 192.748 80.1275 193.163 79.9966C193.715 79.8127 194.288 79.6688 194.883 79.5648C195.393 79.4758 195.886 79.4625 196.364 79.5249C196.871 79.5824 197.286 79.7872 197.61 80.1392C197.929 80.4629 198.114 80.7664 198.163 81.0496C198.257 81.5878 198.037 82.0788 197.501 82.5227C196.989 82.9332 196.354 83.3069 195.595 83.6437C194.832 83.9523 194.12 84.2225 193.46 84.4546C192.8 84.6867 192.322 84.8724 192.025 85.0118L192.047 85.1393C192.097 85.4226 192.282 86.1491 192.603 87.319C192.924 88.4889 193.329 89.7172 193.816 91.004C194.299 92.2624 194.824 93.2653 195.393 94.0125C195.941 94.6464 196.272 95.2891 196.386 95.9406C196.52 96.7054 196.267 97.3479 195.628 97.8682C195.398 98.0544 195.156 98.1697 194.901 98.2142ZM178.469 84.3589C178.582 84.3391 179.661 83.917 181.707 83.0927C183.752 82.2683 184.824 81.8038 184.922 81.699L184.915 81.6565C184.87 81.4016 184.544 80.4516 183.935 78.8065C183.395 77.383 182.818 75.8346 182.204 74.1611C181.614 72.4544 181.056 70.5962 180.53 68.5864L180.178 69.8301C179.782 71.242 179.444 72.9796 179.162 75.0429C178.88 77.1062 178.666 79.0556 178.52 80.891C178.368 82.698 178.327 83.7998 178.397 84.1964C178.416 84.3097 178.44 84.3639 178.469 84.3589ZM221.144 92.316C220.889 92.3606 220.621 92.3343 220.342 92.2372C219.716 91.9963 218.266 90.717 215.993 88.3994C213.644 85.9784 212.091 84.1918 211.335 83.0395C210.762 82.2639 210.118 81.5007 209.403 80.7499C208.683 79.9708 207.564 78.9986 206.047 77.8333L206.086 78.3081C206.418 80.8772 206.541 82.6656 206.454 83.6732C206.375 84.3877 206.037 84.9576 205.439 85.383C205.279 85.4693 205.207 85.555 205.222 85.64C205.237 85.7249 205.261 86.1148 205.295 86.8094C205.36 88.5202 205.384 89.7421 205.366 90.475C205.319 91.7092 205.113 92.6208 204.749 93.2098C204.385 93.7989 203.99 94.1305 203.565 94.2047C203.141 94.279 202.738 94.145 202.357 93.8029C202.009 93.4841 201.783 93.0273 201.68 92.4325C201.635 92.1776 201.612 91.627 201.61 90.7808C201.621 87.3345 201.202 79.4241 200.354 67.0497C200.343 66.3218 200.558 65.6275 200.997 64.967C201.46 64.2732 202.017 63.8694 202.668 63.7556C203.15 63.6714 203.635 63.7764 204.124 64.0704C204.71 64.5811 205.064 65.1905 205.188 65.8987C205.262 66.3236 205.308 66.7534 205.326 67.1882C205.343 67.623 205.384 68.0245 205.449 68.3927C205.498 68.676 205.573 68.9401 205.675 69.1851C207.363 72.3346 209.311 75.3803 211.518 78.3225C213.725 81.2646 215.73 83.7166 217.532 85.6786C219.329 87.6123 220.341 88.5593 220.568 88.5197C220.681 88.4999 220.746 88.3718 220.764 88.1353C220.831 87.6856 220.76 85.6109 220.552 81.9109C220.196 73.8583 220.051 68.352 220.118 65.3921C220.125 63.26 220.085 61.1944 219.999 59.1954C219.822 56.5117 219.812 54.9517 219.969 54.5156C220.071 54.2642 220.226 54.0621 220.433 53.9092C220.668 53.7514 220.884 53.6551 221.083 53.6205C221.621 53.5265 222.095 53.7355 222.506 54.2476C222.544 54.2993 222.588 54.4668 222.637 54.75C223.013 56.9028 223.426 63.4422 223.875 74.3685C224.312 84.8882 224.422 90.4444 224.204 91.037C224.007 91.2466 223.795 91.3711 223.569 91.4107C223.399 91.4404 223.238 91.4393 223.087 91.4074C222.963 91.3705 222.852 91.317 222.752 91.2469C222.657 91.2051 222.581 91.1891 222.525 91.199C222.468 91.2089 222.407 91.278 222.342 91.4061C222.053 91.9236 221.653 92.2269 221.144 92.316ZM254.194 87.8557L252.989 87.9786C252.508 88.0627 252.077 88.0212 251.698 87.8539C251.318 87.6867 250.889 87.2362 250.411 86.5025C249.965 85.7921 249.396 84.6218 248.703 82.9916C248.038 81.3564 247.159 79.087 246.068 76.1834C245.983 76.1983 244.551 76.5215 241.772 77.153C238.992 77.7845 237.607 78.1286 237.617 78.1853C237.622 78.2136 237.656 79.2439 237.719 81.2762C237.783 83.3085 237.818 84.5137 237.826 84.8918L238.02 85.2519C238.297 85.6705 238.471 86.0781 238.54 86.4746C238.63 87.1594 238.453 87.7304 238.007 88.1877C237.562 88.645 237.07 88.9207 236.532 89.0147C235.88 89.1285 235.264 88.9442 234.684 88.4619C234.236 88.073 233.933 87.4253 233.775 86.5189C233.706 86.1223 233.674 85.69 233.68 85.222C233.688 84.4324 233.689 83.6004 233.682 82.7259C233.698 81.8181 233.695 81.0452 233.671 80.4072C233.67 79.7359 233.667 79.3861 233.662 79.3578L233.457 79.4374C233.354 79.5138 233.111 79.6292 232.73 79.7834C232.376 79.9328 231.959 80.0495 231.477 80.1336C230.174 80.3612 229.219 79.9881 228.611 79.0143C228.515 78.7976 228.444 78.5618 228.4 78.3068C228.187 77.0888 228.679 76.2293 229.876 75.7284C230.611 75.4248 231.333 75.2112 232.041 75.0874C232.749 74.9637 233.277 74.8131 233.626 74.6354C233.672 74.5689 233.727 73.961 233.789 72.8117C234.168 66.2944 234.991 61.1446 236.256 57.3623C236.998 55.423 237.991 54.3445 239.238 54.1268C239.663 54.0525 240.057 54.0565 240.422 54.1388C240.815 54.2161 241.154 54.3174 241.438 54.4429C241.746 54.535 241.957 54.5712 242.07 54.5514C242.495 54.4772 243.069 54.6689 243.791 55.1265C244.541 55.5792 244.983 56.188 245.117 56.9528C245.171 57.2643 245.141 57.5908 245.025 57.932C244.984 58.0269 244.973 58.131 244.992 58.2443C245.007 58.3293 245.137 58.6568 245.383 59.2269C245.791 60.0605 247.071 63.2084 249.222 68.6706L249.314 68.6983C249.964 68.9059 250.468 69.2849 250.827 69.8352C250.903 69.9386 251.097 69.9631 251.409 69.9087C251.692 69.8592 252.041 69.769 252.456 69.6381C253.008 69.4542 253.581 69.3103 254.176 69.2063C254.686 69.1173 255.179 69.1039 255.657 69.1664C256.164 69.2239 256.579 69.4287 256.903 69.7807C257.222 70.1044 257.407 70.4079 257.456 70.6911C257.55 71.2293 257.33 71.7203 256.794 72.1641C256.282 72.5747 255.647 72.9484 254.888 73.2852C254.125 73.5937 253.413 73.864 252.753 74.0961C252.093 74.3282 251.615 74.5139 251.318 74.6533L251.34 74.7808C251.39 75.064 251.575 75.7906 251.896 76.9605C252.217 78.1304 252.622 79.3587 253.109 80.6455C253.592 81.9039 254.117 82.9068 254.686 83.654C255.234 84.2879 255.565 84.9306 255.679 85.5821C255.813 86.3469 255.56 86.9894 254.921 87.5097C254.691 87.6958 254.449 87.8112 254.194 87.8557ZM237.762 74.0004C237.875 73.9806 238.954 73.5585 241 72.7342C243.045 71.9098 244.117 71.4453 244.215 71.3405L244.208 71.298C244.163 71.0431 243.837 70.0931 243.228 68.448C242.688 67.0245 242.111 65.4761 241.497 63.8026C240.907 62.0959 240.349 60.2377 239.823 58.2279L239.471 59.4716C239.075 60.8835 238.737 62.6211 238.455 64.6844C238.173 66.7477 237.959 68.6971 237.813 70.5325C237.661 72.3395 237.62 73.4413 237.69 73.8379C237.709 73.9512 237.734 74.0053 237.762 74.0004Z" fill="#161616"/>
</svg>
