<svg width="76" height="70" viewBox="0 0 76 70" fill="none" xmlns="http://www.w3.org/2000/svg">
<path d="M72.0084 30.635L70.8118 30.6859C52.9156 31.0411 35.0644 32.219 17.2584 34.2196C12.11 34.7971 6.97537 35.4439 1.85472 36.1603L1.85472 36.1602L1.85182 36.1607C1.35506 36.2331 0.982808 36.5266 0.860928 36.9736C0.750367 37.3791 0.876184 37.8035 1.10158 38.1314L1.12536 38.1659L1.15457 38.1961C1.46207 38.5133 1.84172 38.7515 2.26113 38.8903C2.67861 39.0285 3.12318 39.0641 3.5573 38.9943C21.4401 36.5077 39.4136 34.8578 57.4775 34.0446C62.6482 33.8173 67.816 33.6601 72.9811 33.5732L72.9848 33.5731C73.3427 33.5644 73.761 33.4606 74.063 33.1929C74.2214 33.0524 74.351 32.8624 74.4039 32.6238C74.4567 32.3861 74.4241 32.1421 74.3296 31.9074L74.3125 31.865L74.2881 31.8264C74.0462 31.4451 73.7082 31.1342 73.308 30.925C72.9078 30.7158 72.4596 30.6158 72.0084 30.635Z" fill="#FFC700" stroke="#FFC700"/>
<path d="M30.6995 4.71583C30.5921 4.89405 30.5512 5.0926 30.5612 5.29395L30.5417 5.34852L30.5629 5.47627C33.1305 20.9833 36.8326 36.281 41.6391 51.2462C43.006 55.5279 44.4681 59.7807 46.0257 64.0049L46.0271 64.0087C46.188 64.4343 46.5733 64.7247 46.9348 64.906C47.3119 65.0951 47.7563 65.2135 48.1708 65.2437C48.5648 65.2725 49.0323 65.2284 49.3767 64.98C49.5632 64.8455 49.7119 64.6506 49.7718 64.3966C49.8296 64.1515 49.7935 63.8993 49.7041 63.6587C44.3312 49.0268 40.0419 34.0194 36.8712 18.7581C35.9794 14.444 35.1726 10.1104 34.4507 5.75743C34.3728 5.27757 34.0216 4.92686 33.6765 4.69926C33.3183 4.46297 32.8796 4.29914 32.4614 4.22054C32.0555 4.14426 31.595 4.13464 31.221 4.28655C31.0258 4.36587 30.8296 4.50004 30.6995 4.71583Z" fill="#FFC700" stroke="#FFC700"/>
</svg>
