<svg width="88" height="122" viewBox="0 0 88 122" fill="none" xmlns="http://www.w3.org/2000/svg">
<g clip-path="url(#clip0_19_283)">
<path d="M0.962158 82.4852C0.962158 82.4852 1.30861 82.2725 1.31502 82.2789C1.37918 82.395 0.994214 87.8437 1.05837 87.9533C1.19952 88.1983 11.5868 81.4664 11.7472 81.7501C11.9718 82.1305 1.11613 92.467 1.27653 92.7443C1.60374 93.3118 20.7551 80.7829 21.0374 81.2794C21.4031 81.9242 1.30219 96.8518 1.67431 97.5031C2.04643 98.1544 30.0773 80.0929 30.4623 80.8022C30.8472 81.5115 1.86039 101.553 2.38008 102.462C2.84202 103.261 37.0771 80.9957 37.6673 81.9951C38.2576 82.9946 3.02166 106.021 3.54135 106.93C4.06103 107.84 37.4171 86.0446 37.9432 86.9409C38.3795 87.7018 4.75394 109.832 5.33778 110.857C5.83822 111.721 38.7003 90.2231 39.2264 91.1967C39.6819 91.9834 7.89772 113.933 8.31475 114.655C9.59793 116.886 82.6875 69.0472 83.7397 70.8914C84.7919 72.7355 11.3045 115.945 12.1579 117.441C13.0112 118.937 84.4839 73.3288 85.4078 74.9279C86.5049 76.8624 16.0138 117.563 17.0852 119.421C18.2337 121.419 85.2089 77.3331 86.3124 79.2482C87.1529 80.7184 23.0006 118.86 24.0785 120.736C25.0665 122.451 86.0108 82.8722 86.8385 84.3166C87.6661 85.761 30.9307 119.956 31.7519 121.381C32.5731 122.806 86.1263 87.7728 87.0117 89.3139C87.6982 90.5133 39.4766 120.265 40.2465 121.619C40.8175 122.612 86.3381 93.6148 86.8834 94.5369C87.4288 95.459 48.292 120.517 48.8566 121.503C49.4212 122.49 85.8184 99.0248 86.2611 99.8051C86.614 100.418 58.6728 120.181 59.0899 120.942C59.4428 121.587 84.0219 105.589 84.4005 106.26C84.625 106.647 72.8519 117.415 73.0059 117.718C73.07 117.841 77.5547 114.933 77.6189 115.042" stroke="#6231EB" stroke-width="0.64482" stroke-linecap="round" stroke-linejoin="round"/>
<path d="M54.6501 60.1425C55.1442 61.0001 85.9596 41.0494 86.3573 41.7458C86.7551 42.4423 64.2418 59.1559 64.5755 59.7492C64.9091 60.3424 84.7277 47.4976 84.9715 47.9167" stroke="#6231EB" stroke-width="0.64482" stroke-linecap="round" stroke-linejoin="round"/>
<path d="M21.9613 47.7876C21.9613 47.7876 22.295 47.5877 22.3014 47.5941C22.3591 47.6973 21.4224 53.146 21.493 53.2685C21.6598 53.5587 31.3093 47.2395 31.4504 47.4652C31.6621 47.8327 20.7936 58.7431 20.9925 59.0719C21.2748 59.5555 42.9091 45.5307 43.2749 46.1755C43.6406 46.8203 20.1008 64.1208 20.505 64.8301C21.5379 66.6227 86.043 24.8835 86.8706 26.3215C87.7753 27.9077 19.2089 68.7055 20.0494 70.1693C20.8899 71.633 86.1777 29.8615 87.0118 31.3188C87.9293 32.918 20.0943 72.9291 21.1016 74.6766C22.1667 76.5336 85.9788 35.0007 86.8514 36.5225C87.7881 38.1539 29.9683 73.2773 30.7382 74.5669C31.0141 75.0505 53.9829 60.2777 54.3294 60.8774C54.6117 61.3674 38.88 74.3348 39.1815 74.8507C39.5665 75.4955 61.5986 61.1869 61.8809 61.677C62.1632 62.167 45.3472 76.2177 45.6038 76.5981C45.9118 77.1333 69.3425 61.8704 69.7659 62.5797C70.0418 63.0633 47.952 79.4096 48.2407 79.9448C48.6898 80.725 75.1874 63.5663 75.5017 64.1208C75.9252 64.8624 48.4396 84.3231 48.8502 85.0324C49.3635 85.9352 79.749 65.9328 80.2495 66.8098C80.6729 67.5449 47.4323 89.63 48.029 90.6681C48.6257 91.7063 82.7324 69.215 83.3162 70.208" stroke="#6231EB" stroke-width="0.64482" stroke-linecap="round" stroke-linejoin="round"/>
<path d="M41.0999 30.861C41.7414 32.0088 78.9535 7.60229 79.5181 8.56952C79.9992 9.39489 46.7971 31.3898 47.3104 32.3118C47.7467 33.0663 81.8791 10.8651 82.4758 11.9033C83.0724 12.9414 47.5863 36.271 48.183 37.3092C48.6706 38.1604 84.208 15.1403 84.7534 16.0881C85.2987 17.036 46.7651 42.2549 47.2719 43.1319C47.7788 44.0088 85.5233 19.6024 86.0943 20.6019" stroke="#6231EB" stroke-width="0.64482" stroke-linecap="round" stroke-linejoin="round"/>
<path d="M10.06 7.92452C10.1177 8.02124 14.5511 5.15826 14.6217 5.28077C14.827 5.64832 3.65695 16.0364 3.86868 16.4104C4.21513 17.0036 27.9603 1.65044 28.2939 2.22433C28.7109 2.94008 1.86052 22.2137 2.19415 22.8199C2.71383 23.7226 38.1679 0.837978 38.6427 1.6698C39.3228 2.84337 0.904579 27.3466 1.49484 28.3783C2.27757 29.7389 46.6946 0.309244 47.4837 1.68916C48.0868 2.73377 0.468283 33.008 1.11628 34.13C2.04659 35.755 55.7602 0.554225 56.5622 1.95993C57.2872 3.24957 0.102571 37.7668 0.98796 39.3015C2.00167 41.0683 63.2219 0.676763 64.319 2.54674C65.1338 3.9589 6.15917 39.4691 7.0638 41.0425C7.96844 42.6158 70.074 2.50159 70.9209 3.98468C71.6266 5.20984 15.321 39.8238 16.1871 41.3262C17.2329 43.1446 75.4826 4.57148 76.4963 6.33829C77.3175 7.76334 23.8862 40.3848 24.5663 41.5906C24.7587 41.926 38.3796 33.0726 38.5978 33.453C38.7197 33.6594 32.4193 41.5906 32.5669 41.8357C32.6503 41.984 37.6611 38.7212 37.6996 38.8437" stroke="#6231EB" stroke-width="0.64482" stroke-linecap="round" stroke-linejoin="round"/>
<path d="M43.3327 29.9714C42.4655 29.9548 41.6006 30.0679 40.7664 30.3067C40.3827 30.4398 40.0296 30.6494 39.7286 30.9232C39.4276 31.1969 39.1848 31.5289 39.0149 31.8994C38.4859 33.0078 38.1475 34.1982 38.014 35.4201C37.7507 37.4013 37.6284 39.3989 37.6483 41.3976L0.949548 40.2241C0.949548 32.512 1.4222 26.1133 2.36747 21.0278C3.31274 15.9423 5.2375 11.9186 8.14175 8.95668C11.0289 5.9948 15.1436 3.92708 20.4859 2.75351C25.8281 1.57994 32.9455 0.993164 41.8379 0.993164C48.5104 0.993164 54.6268 1.16084 60.1872 1.49614C65.7476 1.83145 70.5296 2.89329 74.5331 4.6816C78.4953 6.43456 81.7561 9.47546 83.7912 13.3157C85.9597 17.2792 87.044 22.8397 87.044 29.9972C87.044 36.2605 86.5714 41.3181 85.6262 45.1698C84.6809 49.0215 82.9571 52.0114 80.4549 54.1393C77.9527 56.2586 74.5887 57.6836 70.3628 58.4144C65.0552 59.2207 59.6904 59.5852 54.3231 59.5042V60.8454C59.6936 60.7607 65.0611 61.1533 70.3628 62.019C74.5844 62.8014 77.9485 64.2264 80.4549 66.2941C82.9614 68.3619 84.6852 71.2679 85.6262 75.0121C86.5714 78.7607 87.044 83.6506 87.044 89.6818C87.044 97.0585 85.9597 102.843 83.7912 107.034C81.7751 111.072 78.5325 114.36 74.5331 116.422C70.5296 118.494 65.7476 119.784 60.1872 120.291C54.6268 120.799 48.5104 121.05 41.8379 121.046C32.9369 121.046 25.8196 120.571 20.4859 119.621C15.1521 118.671 11.0353 116.758 8.13532 113.882C5.24391 111.032 3.31915 107.036 2.36105 101.895C1.40294 96.7533 0.930294 89.9913 0.943125 81.6086L37.6419 79.7644C37.6419 84.4587 37.9477 87.6828 38.5593 89.4367C39.171 91.1907 40.8113 92.0504 43.4803 92.016C45.2554 92.016 46.5899 91.5861 47.4838 90.7264C48.3778 89.8666 48.8226 87.5023 48.8183 83.6334C48.9062 81.6922 48.5046 79.7603 47.6506 78.017C46.8679 76.6177 45.4243 75.6182 43.3135 74.9992C40.4203 74.2914 37.4498 73.9535 34.4724 73.9933C30.6871 73.9374 25.7383 73.9654 19.6261 74.0772L21.9615 46.9173C27.6331 46.9173 32.1927 46.8335 35.6401 46.6658C39.0876 46.4982 41.7288 46.0683 43.5637 45.3762C45.3986 44.7314 46.6177 43.7254 47.2336 42.4422C47.9077 40.8257 48.2209 39.0802 48.1511 37.3288C48.1511 34.5389 47.8452 32.6044 47.2336 31.5254C46.6305 30.5001 45.3473 29.9714 43.3327 29.9714Z" stroke="#6231EB" stroke-width="3" stroke-miterlimit="10"/>
</g>
<defs>
<clipPath id="clip0_19_283">
<rect width="88" height="122" fill="white"/>
</clipPath>
</defs>
</svg>
