<svg width="46" height="122" viewBox="0 0 46 122" fill="none" xmlns="http://www.w3.org/2000/svg">
<g clip-path="url(#clip0_19_270)">
<path d="M6.45503 1.25967C6.45503 1.25967 6.8823 1.00248 6.88887 1.00908C6.9809 1.17394 3.29327 8.34892 3.37873 8.49401C3.56935 8.83033 16.1112 0.652961 16.3084 1.00247C16.6042 1.51685 1.47904 14.6072 1.7354 15.0556C1.99176 15.504 25.6096 0.316711 26.004 0.995954C26.3984 1.6752 3.65481 18.7288 3.95718 19.2299C4.32529 19.8894 34.9766 0.178224 35.4433 0.995954C35.8443 1.65541 5.71882 22.5998 6.18552 23.4176C6.74425 24.387 44.429 0.198008 44.8892 0.995954C45.5136 2.07747 6.03435 27.9151 6.56678 28.8383C7.22412 29.9858 44.4553 5.67151 44.9812 6.58816C45.6385 7.71583 5.85687 33.105 6.56678 34.3316C7.06636 35.2021 44.3633 10.9999 44.9812 12.0814C45.5991 13.1629 5.85687 38.0839 6.56678 39.3105C7.22412 40.4118 44.4422 16.1107 44.9812 17.0538C45.5202 17.9968 5.94232 43.4717 6.56678 44.5466C7.09265 45.4633 44.383 21.2479 44.9878 22.2964C45.4939 23.1801 6.07379 48.7408 6.56678 49.5981C7.05978 50.4554 44.3567 26.2598 44.9878 27.3479C45.6188 28.436 6.0212 53.8252 6.56678 54.7748C7.18468 55.8497 44.4816 31.6476 44.9878 32.5247C45.4939 33.4017 5.93575 58.903 6.56678 59.9582C7.19782 61.0133 44.4224 36.7254 44.9878 37.708C45.5531 38.6906 5.96204 64.1194 6.56678 65.1679C7.09265 66.0846 44.5342 42.1264 44.9878 42.9112C45.5465 43.874 6.00148 69.7182 6.56678 70.7008C7.22412 71.8087 44.3304 47.2966 44.9878 48.444C45.6451 49.5915 6.03435 74.7762 6.56678 75.6929C7.09922 76.6095 44.4685 52.5326 44.9878 53.4361C45.6122 54.5176 6.06064 79.9464 6.56678 80.8235C7.07293 81.7006 44.4487 57.6237 44.9878 58.5667C45.5268 59.5097 5.88973 85.0242 6.56678 86.1981C7.0795 87.0884 44.5276 63.117 44.9943 63.9413C45.5071 64.8448 5.88316 90.6692 6.56678 91.8496C7.18468 92.9245 44.4619 68.6762 44.9943 69.5929C45.5859 70.6282 5.88316 96.0636 6.56678 97.244C7.04006 98.0618 44.4225 73.9981 44.9943 74.9873C45.6517 76.1677 5.91603 101.32 6.56678 102.454C7.0795 103.351 44.4225 79.2012 44.9943 80.197C45.5662 81.1928 5.9226 106.971 6.56678 108.092C7.11237 109.042 44.3633 84.7341 44.9943 85.8354C45.4873 86.6861 5.88973 112.55 6.56678 113.731C7.12552 114.693 44.4422 90.5044 44.9943 91.4672C45.5465 92.43 6.0212 118.188 6.56678 119.164C7.22412 120.279 44.3436 95.7668 44.9943 96.9077C45.5202 97.8244 12.187 120.061 12.7851 121.044C13.1598 121.703 44.5539 101.537 44.9943 102.361C45.4347 103.186 21.2121 120.338 21.6131 121.037C21.9352 121.598 44.6197 106.866 45.0009 107.492C45.277 107.98 30.9012 120.642 31.1312 121.031C31.3613 121.42 44.7906 112.642 45.0009 112.999C45.1324 113.229 39.7883 120.826 39.9066 121.024C40.0249 121.222 44.9418 117.971 45.0009 118.076" stroke="#6231EB" stroke-width="0.659601" stroke-linecap="round" stroke-linejoin="round"/>
<path d="M6.56006 24.1363L1.09106 13.8487L6.56006 0.989258H45.0139V121.011H6.56006V24.1363Z" stroke="#6231EB" stroke-width="3" stroke-miterlimit="10"/>
</g>
<defs>
<clipPath id="clip0_19_270">
<rect width="46" height="122" fill="white"/>
</clipPath>
</defs>
</svg>
