<svg width="127" height="131" viewBox="0 0 127 131" fill="none" xmlns="http://www.w3.org/2000/svg">
<path d="M37.7297 109.539C58.5673 118.927 84.7922 105.82 96.3046 80.2656C107.817 54.7109 100.258 26.3847 79.4201 16.9973C58.5826 7.60995 32.3577 20.7162 20.8452 46.271C9.33275 71.8258 16.8922 100.152 37.7297 109.539Z" stroke="white" stroke-width="3" stroke-linecap="round" stroke-linejoin="round"/>
<path d="M79.4199 16.9976L88.8772 21.2581C109.717 30.6463 117.275 58.9707 105.766 84.5171C94.2572 110.064 68.0348 123.17 47.1984 113.783L37.7379 109.521" stroke="white" stroke-width="3" stroke-linecap="round" stroke-linejoin="round"/>
<path d="M57.5426 42.0459L43.176 49.2978" stroke="white" stroke-width="3" stroke-linecap="round" stroke-linejoin="round"/>
<path d="M47.4854 38.2769L52.7105 57.6002" stroke="white" stroke-width="3" stroke-linecap="round" stroke-linejoin="round"/>
<path d="M83.6237 52.6633C78.4963 56.8335 72.3672 59.6918 65.7463 61.0007" stroke="white" stroke-width="3" stroke-linecap="round" stroke-linejoin="round"/>
<path d="M71.5996 47.0078L77.3215 68.2597" stroke="white" stroke-width="3" stroke-linecap="round" stroke-linejoin="round"/>
<path d="M44.2043 67.9175C50.1557 73.1805 57.1094 77.2078 64.6132 79.7374C60.4141 79.5506 56.2294 79.8138 52.1332 80.5223C48.0063 81.2397 44.2983 83.275 41.5748 86.3178" stroke="white" stroke-width="3" stroke-linecap="round" stroke-linejoin="round"/>
<path d="M82.9832 25.5942C85.7436 27.2262 89.9143 32.721 92.2298 38.6932C94.726 45.1312 95.8108 52.2012 95.3067 56.0039" stroke="white" stroke-width="3" stroke-linecap="round"/>
</svg>
