<svg width="121" height="125" viewBox="0 0 121 125" fill="none" xmlns="http://www.w3.org/2000/svg">
<path d="M84.6439 104.322C64.7989 113.262 39.8232 100.78 28.8591 76.4423C17.895 52.1048 25.0943 25.1279 44.9393 16.1877C64.7843 7.24747 89.76 19.7295 100.724 44.067C111.688 68.4045 104.489 95.3815 84.6439 104.322Z" stroke="#161616" stroke-width="3" stroke-linecap="round" stroke-linejoin="round"/>
<path d="M44.9395 16.1875L35.9327 20.2451C16.0858 29.1861 8.88793 56.1613 19.8484 80.4909C30.809 104.82 55.7823 117.302 75.6262 108.363L84.636 104.304" stroke="#161616" stroke-width="3" stroke-linecap="round" stroke-linejoin="round"/>
<path d="M41.5459 24.3745C38.917 25.9288 34.9449 31.1618 32.7397 36.8495C30.3624 42.9808 29.3292 49.7141 29.8094 53.3357" stroke="#161616" stroke-width="3" stroke-linecap="round"/>
<path d="M69.7051 36.7136L73.9243 58.3592" stroke="#161616" stroke-width="3" stroke-linecap="round" stroke-linejoin="round"/>
<path d="M48.562 43.6998L54.9606 61.4122" stroke="#161616" stroke-width="3" stroke-linecap="round" stroke-linejoin="round"/>
<path d="M65.1842 70.3369C69.2612 75.1773 74.851 75.2458 80.4486 74.8476C75.761 77.6273 71.9516 81.4923 69.3279 86.3624" stroke="#161616" stroke-width="3" stroke-linecap="round" stroke-linejoin="round"/>
</svg>
