<svg width="74" height="71" viewBox="0 0 74 71" fill="none" xmlns="http://www.w3.org/2000/svg">
<path d="M46.8874 2.40437L46.4394 3.51511C39.3699 19.9597 33.0681 36.703 27.5342 53.7451C25.9333 58.6722 24.4012 63.6154 22.9382 68.5746L22.9382 68.5746L22.9374 68.5774C22.7981 69.0598 22.9116 69.52 23.2683 69.8157C23.592 70.0839 24.0304 70.1446 24.4221 70.0748L24.4634 70.0674L24.5029 70.0533C24.9189 69.9043 25.2926 69.6569 25.5923 69.3323C25.8906 69.0092 26.1067 68.6191 26.2224 68.1949C31.3454 50.882 37.2679 33.8324 43.9897 17.0459C45.9187 12.2432 47.9104 7.472 49.965 2.73233L49.9664 2.72895C50.1064 2.39946 50.1847 1.9756 50.0656 1.58997C50.0031 1.38769 49.8836 1.19115 49.6882 1.04439C49.4935 0.898201 49.2578 0.827053 49.0051 0.816153L48.9594 0.814183L48.9142 0.820531C48.467 0.883214 48.0442 1.06264 47.6884 1.34068C47.3326 1.61873 47.0563 1.98561 46.8874 2.40437Z" fill="#FFC700" stroke="#FFC700"/>
<path d="M6.21817 29.3164C6.3361 29.4878 6.5 29.6071 6.68752 29.6811L6.72917 29.7214L6.85425 29.7549C22.0369 33.8227 37.4977 36.7709 53.1118 38.5759C57.5757 39.0999 62.0527 39.5252 66.543 39.8518L66.5471 39.8521C67.0011 39.8813 67.4248 39.6504 67.7392 39.3961C68.0672 39.1309 68.3586 38.7751 68.5574 38.4101C68.7463 38.0632 68.8993 37.6192 68.8154 37.2029C68.7699 36.9775 68.6538 36.7616 68.4473 36.6021C68.2479 36.4482 68.0033 36.3769 67.7474 36.3589C52.2027 35.2074 36.7639 32.9139 21.5558 29.4969C17.2586 28.5268 12.9788 27.4713 8.71638 26.3305C8.24719 26.2032 7.78272 26.3782 7.43291 26.5984C7.06974 26.827 6.73931 27.1588 6.49497 27.5072C6.25782 27.8454 6.05882 28.2608 6.04268 28.6641C6.03425 28.8747 6.07538 29.1088 6.21817 29.3164Z" fill="#FFC700" stroke="#FFC700"/>
</svg>
