<svg width="128" height="140" viewBox="0 0 128 140" fill="none" xmlns="http://www.w3.org/2000/svg">
<path d="M88.1373 39.3097C87.2426 42.3525 85.6509 45.1345 83.491 47.4304C81.3979 49.6272 78.9141 51.4053 76.1678 52.6729C73.4565 53.9425 70.5656 54.7822 67.5962 55.1625C64.8535 55.5401 62.0654 55.4684 59.3389 54.95C57.0089 54.4832 54.6867 53.6229 52.8078 52.0983C52.5996 51.9303 52.3991 51.7558 52.2052 51.5721C52.0552 51.4334 51.857 51.6795 52.0081 51.8212C53.7608 53.4688 56.0396 54.4655 58.3253 55.0483C61.0368 55.6934 63.8327 55.8757 66.5971 55.5878C69.5931 55.307 72.5265 54.5679 75.2971 53.3957C78.1386 52.2148 80.7393 50.5175 82.9715 48.3872C85.2533 46.1933 86.9986 43.4914 88.0709 40.4928C88.2018 40.1213 88.3223 39.74 88.4328 39.3591C88.4908 39.1625 88.1782 39.1126 88.1209 39.3021L88.1373 39.3097Z" fill="#161616" stroke="white" stroke-width="2"/>
<path d="M31.5765 59.6567C35.351 58.2194 39.1322 56.7969 42.9199 55.3891C46.6612 53.9899 50.4022 52.5895 54.1428 51.1882C56.2766 50.3757 58.413 49.5702 60.552 48.7719C60.5912 48.7569 60.623 48.7266 60.6402 48.6876C60.6574 48.6485 60.6587 48.604 60.6438 48.5637C60.629 48.5234 60.5991 48.4908 60.5609 48.4728C60.5226 48.4549 60.4791 48.4533 60.4398 48.4682C56.6653 49.9055 52.8852 51.3277 49.0994 52.7346C45.3553 54.1327 41.613 55.5323 37.8724 56.9336C35.7406 57.7454 33.6045 58.5519 31.4643 59.353C31.4251 59.368 31.3934 59.3983 31.3761 59.4373C31.3589 59.4764 31.3576 59.5209 31.3725 59.5612C31.3874 59.6015 31.4172 59.6342 31.4555 59.6521C31.4937 59.67 31.5373 59.6717 31.5765 59.6567Z" fill="#161616" stroke="white" stroke-width="2"/>
<path d="M40.5921 46.7002C45.8476 44.6986 51.112 42.7178 56.3852 40.7579C61.5849 38.8121 66.7842 36.8654 71.9832 34.9176C74.9354 33.8117 77.884 32.699 80.8291 31.5796C80.8683 31.5647 80.9 31.5344 80.9172 31.4953C80.9345 31.4563 80.9358 31.4117 80.9209 31.3714C80.906 31.3311 80.8762 31.2985 80.8379 31.2805C80.7997 31.2626 80.7561 31.2609 80.7169 31.2759C75.4614 33.2776 70.198 35.258 64.9268 37.2171C59.7271 39.1629 54.5268 41.11 49.3258 43.0585C46.3763 44.1658 43.4277 45.2784 40.4799 46.3965C40.4407 46.4114 40.409 46.4418 40.3918 46.4808C40.3746 46.5199 40.3732 46.5644 40.3881 46.6047C40.403 46.645 40.4328 46.6777 40.4711 46.6956C40.5093 46.7135 40.5529 46.7152 40.5921 46.7002Z" fill="#161616" stroke="white" stroke-width="2"/>
<path d="M86.3402 73.5987C85.6002 72.6901 85.0403 71.6487 84.6908 70.5311C84.42 69.5909 84.3529 68.6049 84.494 67.6394C84.7869 65.6207 85.8601 63.8056 87.0162 62.1735C88.3058 60.3317 89.7908 58.6578 91.1515 56.8879C92.3972 55.2425 93.6079 53.4779 94.193 51.472C94.4666 50.559 94.5624 49.6006 94.4751 48.6489C94.3614 47.5994 94.0305 46.5838 93.5039 45.6669C93.361 45.4147 93.2085 45.1729 93.0471 44.9344C92.9317 44.7637 92.678 44.9504 92.7804 45.1227C93.4096 46.0161 93.8478 47.0295 94.0672 48.0985C94.2354 49.0432 94.2075 50.0111 93.9853 50.9417C93.5232 52.9423 92.349 54.7137 91.1424 56.3376C89.7971 58.1392 88.3254 59.8216 87.0012 61.6254C85.8025 63.2701 84.6689 65.0773 84.247 67.1035C84.0454 68.048 84.034 69.0246 84.2135 69.9762C84.444 71.0689 84.8868 72.1069 85.5165 73.0309C85.6891 73.2901 85.8721 73.5408 86.0653 73.7832C86.1903 73.9436 86.4481 73.7587 86.332 73.595L86.3402 73.5987Z" fill="#161616" stroke="white" stroke-width="2"/>
<path d="M88.4951 59.8456L100.912 55.1892L104.667 53.815C105.295 53.6204 105.911 53.3895 106.511 53.1235L106.591 53.0936C106.623 53.0811 106.65 53.0584 106.668 53.0289C106.686 52.9995 106.694 52.9648 106.691 52.9303C106.687 52.8958 106.784 53.1234 106.76 53.0979C106.736 53.0723 106.594 52.7951 106.56 52.789C103.299 52.1116 100.117 50.9488 97.3864 49.012C95.1424 47.433 93.2757 45.4134 91.6014 43.2503C89.9271 41.0871 88.3727 38.7498 86.6712 36.5595C85.7842 35.3775 84.8242 34.2524 83.7967 33.1908C82.9193 32.3198 81.954 31.5022 81.0247 30.7084C77.6005 27.7533 73.9023 25.0029 69.6682 23.3543C65.1366 21.5896 60.2649 21.2918 55.4999 22.0078C52.3822 22.5027 49.3202 23.2925 46.3547 24.3664C46.0592 24.4735 45.0484 25.0629 44.2197 25.4246C42.434 26.2041 40.3246 27.0656 38.7025 28.1505C33.7884 31.5303 29.7519 36.0371 26.9247 41.3006C25.424 44.0572 24.2841 46.9982 23.5329 50.0516C22.7936 53.1062 22.6047 56.24 22.2938 59.355C21.9829 62.47 21.7732 65.5844 22.1436 68.6955C22.5627 72.203 23.6997 75.7677 25.678 78.7245C26.2213 79.5307 26.8257 80.294 27.4856 81.0076C28.1439 81.7194 28.8637 82.3708 29.4844 83.1171C30.5377 84.3342 31.3114 85.7679 31.7503 87.3157C32.5163 90.2308 31.7322 93.2207 30.5475 95.8848C29.9014 97.2959 29.1813 98.6712 28.3899 100.005L27.7771 101.064L27.4971 101.53C27.4111 101.678 27.1575 101.963 27.1365 102.131C27.1155 102.298 27.2898 102.536 27.3886 102.716C27.5761 103.05 27.7646 103.388 27.955 103.721C29.292 106.075 30.7781 108.342 32.4042 110.507C35.34 114.359 38.8037 117.847 42.83 120.535C46.5842 123.056 50.7836 124.829 55.1972 125.756C59.9984 126.76 64.9605 126.752 69.7926 126.062C75.5878 125.228 81.211 123.449 86.5937 121.196C88.0284 120.594 89.532 120.128 90.9297 119.455C93.0288 118.446 95.121 117.465 97.0614 116.163C101.237 113.363 104.744 109.416 106.644 104.713C108.543 100.009 107.934 94.8122 105.91 90.217C104.451 86.995 102.463 84.0387 100.029 81.4722C97.5967 78.8592 94.8501 76.7208 91.5514 75.3198C85.0282 72.5443 77.2634 72.3184 70.6863 74.9072C65.3928 76.9943 60.3262 80.832 57.6786 85.9519C56.4673 88.2113 55.9495 90.7834 56.1898 93.3467C56.1946 93.39 56.2163 93.4297 56.2501 93.4572C56.284 93.4847 56.3272 93.4976 56.3704 93.4932C56.4135 93.4887 56.453 93.4672 56.4801 93.4335C56.5073 93.3997 56.5199 93.3564 56.5151 93.3131C55.8741 87.5329 59.729 82.4056 64.0438 79.064C69.3169 74.9767 75.9225 72.9971 82.5934 73.505C86.2819 73.7496 89.8871 74.7471 93.1877 76.4365C96.3755 78.1069 99.0272 80.6106 101.296 83.3873C105.422 88.4282 108.573 95.2321 107.218 101.856C106.456 105.565 104.268 109.034 101.739 111.77C99.5392 114.12 96.9577 116.077 94.1029 117.561C92.8262 118.263 91.5103 118.891 90.1616 119.443C85.3647 121.307 80.6305 123.3 75.6207 124.556C70.6109 125.813 65.485 126.477 60.3465 126.127C55.8208 125.839 51.386 124.684 47.2823 122.724C43.1525 120.682 39.4185 117.913 36.2599 114.548C34.5362 112.729 32.9466 110.787 31.504 108.737C30.7296 107.647 29.9933 106.533 29.295 105.394C28.9306 104.806 28.5769 104.212 28.2332 103.616C28.0702 103.338 27.8977 103.025 27.7319 102.73C27.6371 102.601 27.5588 102.46 27.4989 102.311C27.4645 102.113 27.6288 101.922 27.738 101.756C30.516 97.1137 33.9851 91.3424 31.5379 85.7908C30.8905 84.3869 29.9969 83.1097 28.9001 82.0206C27.5217 80.6032 26.2252 79.1788 25.2522 77.4394C23.524 74.2625 22.5288 70.7408 22.3405 67.136C22.151 64.0829 22.4678 61.0371 22.7732 58.0058C23.0879 54.9098 23.3499 51.8709 24.1966 48.8678C25.9154 42.9138 29.0719 37.4861 33.3876 33.0638C35.3942 30.9884 37.6486 29.1691 40.1003 27.6468C42.6428 26.078 45.3856 24.9848 48.2181 24.0926C53.4075 22.4355 58.9656 21.4221 64.4277 22.2702C68.8299 22.9616 72.8632 24.9098 76.4671 27.4916C78.355 28.8615 80.1687 30.3318 81.9004 31.8962C82.9426 32.7979 83.9226 33.7695 84.8336 34.8043C85.7543 35.8698 86.6189 36.9836 87.4602 38.1163C90.6135 42.3731 93.4863 46.9424 98.0463 49.8353C100.655 51.4319 103.528 52.5431 106.525 53.115" stroke="white" stroke-width="2"/>
<path d="M24.8154 25.2641C27.3558 26.7967 30.1904 27.7769 33.1349 28.1409C34.2687 28.2869 35.4152 28.3063 36.5533 28.1988C37.6286 28.0741 38.6915 27.8589 39.7307 27.5554C41.1165 27.1551 42.5072 26.5516 43.8424 26.0057C44.6443 25.7035 45.4953 25.3324 46.2991 24.9745C46.4515 24.9171 46.5529 25.0162 46.6199 24.8536C46.6769 24.6867 46.6719 24.5049 46.6057 24.3415C46.5259 24.1839 46.4145 24.0444 46.2785 23.9319C46.1424 23.8193 45.9845 23.736 45.8148 23.6871C45.4472 23.5759 45.071 23.4956 44.69 23.4471C44.2658 23.3781 43.8375 23.3105 43.4123 23.251C42.5755 23.1359 41.737 23.0444 40.8966 22.9765C39.1975 22.8389 37.4919 22.7984 35.788 22.855C32.4095 22.968 29.0552 23.4716 25.792 24.3557C25.376 24.4667 24.963 24.5857 24.5531 24.7127C24.2889 24.7894 24.4398 25.1904 24.7039 25.1138C30.2469 23.4457 36.0649 22.8933 41.8217 23.4887C42.614 23.5747 43.4068 23.6743 44.191 23.8C44.5852 23.8621 44.9873 23.9212 45.377 24.0078C45.7667 24.0945 46.3039 24.2813 46.2081 24.7569L46.3428 24.5917C43.5652 25.8355 41.4421 27.0157 38.4376 27.5711C35.837 27.9991 32.4098 27.8442 29.8943 27.059C28.1783 26.5304 26.5326 25.7961 24.993 24.8721C24.7531 24.7335 24.5811 25.128 24.8154 25.2641Z" fill="#161616" stroke="white" stroke-width="2"/>
</svg>
