<svg width="24" height="101" viewBox="0 0 24 101" fill="none" xmlns="http://www.w3.org/2000/svg">
<path d="M11.4199 2.62412C18.1495 26.7352 21.4024 51.6835 21.08 76.7141C20.9866 83.8008 20.6033 90.8774 19.9299 97.9441L21.9299 97.774C16.1378 83.31 12.714 68.0073 11.7899 52.4541L9.54995 52.2241C10.441 66.8123 9.11939 81.4513 5.62996 95.644L7.78993 95.8541C5.36904 88.7853 3.84055 81.4418 3.23995 73.9941C3.09995 72.3241 0.999957 71.7841 0.999957 73.7641L0.999956 95.894C0.999956 97.594 3.23995 98.0841 3.23995 96.1241L3.23995 73.9941L0.999957 73.7641C1.61275 81.4793 3.18486 89.0878 5.67995 96.414C6.07995 97.614 7.46998 98.1341 7.83998 96.6241C11.3905 82.1863 12.7391 67.2948 11.84 52.4541C11.74 50.7741 9.47993 50.2541 9.59993 52.2241C10.5742 68.3097 14.1367 84.1329 20.15 99.0841C20.57 100.084 22.05 100.144 22.15 98.914C24.5523 73.5344 23.3097 47.9416 18.46 22.914C17.1266 15.914 15.4866 8.97409 13.5399 2.09409C13.0399 0.304094 10.92 0.86404 11.43 2.66404L11.4199 2.62412Z" fill="#161616" stroke="#161616"/>
</svg>
