<svg width="56" height="95" viewBox="0 0 56 95" fill="none" xmlns="http://www.w3.org/2000/svg">
<path d="M52.2959 0.994512L51.3977 1.65006C37.7527 11.1427 24.5663 21.2478 11.8385 31.9653C8.15796 35.0634 4.52379 38.208 0.936173 41.399L0.936168 41.399L0.934149 41.4009C0.58764 41.7127 0.45115 42.1312 0.58725 42.5394C0.71071 42.9097 1.02652 43.1728 1.36954 43.31L1.40573 43.3245L1.44382 43.3327C1.84482 43.4194 2.26084 43.4079 2.6564 43.2991C3.05012 43.1908 3.41196 42.9894 3.7114 42.7119C16.2481 31.5794 29.2857 21.0467 42.8243 11.1139C46.7025 8.2748 50.6146 5.49141 54.5608 2.76371L54.5636 2.76175C54.8357 2.57072 55.1055 2.27504 55.2009 1.9126C55.2509 1.72247 55.2532 1.50888 55.1712 1.29728C55.0895 1.08649 54.9387 0.91472 54.7448 0.782063L54.7098 0.758089L54.671 0.740867C54.2877 0.570774 53.8663 0.504657 53.4494 0.549184C53.0324 0.593713 52.6346 0.747322 52.2959 0.994512Z" fill="#161616" stroke="#161616" stroke-width="0.92862"/>
<path d="M39.447 32.5631C42.7086 35.1673 46.029 37.7003 49.4083 40.1619L49.4114 40.1641C49.7549 40.41 50.2022 40.436 50.5749 40.3899C50.9637 40.3418 51.368 40.2043 51.7038 40.0142C52.023 39.8335 52.3616 39.5586 52.4998 39.1893C52.5746 38.9893 52.5891 38.7621 52.5045 38.535C52.423 38.3159 52.2652 38.1397 52.0724 37.9998C40.3842 29.4618 29.3399 20.0754 19.0291 9.91676C16.1178 7.04256 13.2621 4.10963 10.4621 1.11797C10.1547 0.787294 9.70267 0.697212 9.31881 0.699079C8.92032 0.701018 8.49696 0.800397 8.13334 0.955084C7.78041 1.10522 7.41964 1.33499 7.20893 1.645C7.09892 1.80685 7.01642 2.01159 7.02709 2.24532C7.0359 2.43834 7.10653 2.61284 7.218 2.76325L7.23107 2.81544L7.31321 2.90326C17.2846 13.5625 28.0248 23.4757 39.447 32.5631ZM39.447 32.5631C39.4468 32.5629 39.4466 32.5627 39.4464 32.5626L39.7359 32.2001L39.4471 32.5631C39.4471 32.5631 39.4471 32.5631 39.447 32.5631Z" fill="#161616" stroke="#161616" stroke-width="0.92862"/>
<path d="M52.2959 52.0686L51.3977 52.7242C37.7527 62.2168 24.5663 72.3219 11.8385 83.0394C8.15796 86.1375 4.52379 89.2821 0.936173 92.4731L0.936168 92.4731L0.934149 92.475C0.58764 92.7868 0.45115 93.2053 0.58725 93.6135C0.71071 93.9838 1.02652 94.2469 1.36954 94.3841L1.40573 94.3986L1.44382 94.4068C1.84482 94.4935 2.26084 94.482 2.6564 94.3732C3.05012 94.2649 3.41196 94.0635 3.7114 93.786C16.2481 82.6535 29.2857 72.1208 42.8243 62.188C46.7025 59.3489 50.6146 56.5655 54.5608 53.8378L54.5636 53.8358C54.8357 53.6448 55.1055 53.3491 55.2009 52.9867C55.2509 52.7966 55.2532 52.583 55.1712 52.3714C55.0895 52.1606 54.9387 51.9888 54.7448 51.8562L54.7098 51.8322L54.671 51.815C54.2877 51.6449 53.8663 51.5788 53.4494 51.6233C53.0324 51.6678 52.6346 51.8214 52.2959 52.0686Z" fill="#161616" stroke="#161616" stroke-width="0.92862"/>
<path d="M39.447 83.6372C42.7086 86.2414 46.029 88.7743 49.4083 91.236L49.4114 91.2382C49.7549 91.4841 50.2022 91.5101 50.5749 91.464C50.9637 91.4159 51.368 91.2784 51.7038 91.0883C52.023 90.9076 52.3616 90.6327 52.4998 90.2634C52.5746 90.0634 52.5891 89.8362 52.5045 89.6091C52.423 89.39 52.2652 89.2137 52.0724 89.0739C40.3842 80.5359 29.3399 71.1495 19.0291 60.9909C16.1178 58.1167 13.2621 55.1837 10.4621 52.1921C10.1547 51.8614 9.70267 51.7713 9.31881 51.7732C8.92032 51.7751 8.49696 51.8745 8.13334 52.0292C7.78041 52.1793 7.41964 52.4091 7.20893 52.7191C7.09892 52.8809 7.01642 53.0857 7.02709 53.3194C7.0359 53.5124 7.10653 53.6869 7.218 53.8373L7.23107 53.8895L7.31321 53.9774C17.2846 64.6366 28.0248 74.5498 39.447 83.6372ZM39.447 83.6372C39.4468 83.637 39.4466 83.6368 39.4464 83.6367L39.7359 83.2742L39.4471 83.6372C39.4471 83.6372 39.4471 83.6372 39.447 83.6372Z" fill="#161616" stroke="#161616" stroke-width="0.92862"/>
</svg>
