<svg width="57" height="50" viewBox="0 0 57 50" fill="none" xmlns="http://www.w3.org/2000/svg">
<path d="M52.7114 19.6776L51.8378 19.7846C38.716 21.0903 25.6754 22.9975 12.716 25.5062C8.96874 26.2309 5.23567 27.0058 1.5169 27.8308L1.5169 27.8308L1.51404 27.8314C1.111 27.9233 0.808488 28.1952 0.733836 28.5901C0.667177 28.9427 0.803749 29.2852 1.00523 29.5335L1.03168 29.5661L1.06319 29.5938C1.32341 29.8228 1.63515 29.9855 1.9718 30.068C2.30641 30.15 2.65579 30.1503 2.99051 30.069C15.97 27.2008 29.0647 24.9412 42.2747 23.2905C46.0563 22.8219 49.84 22.405 53.6257 22.0399L53.6294 22.0395C53.9102 22.0103 54.2452 21.9019 54.4801 21.6577C54.6044 21.5285 54.7034 21.3567 54.7327 21.1469C54.7619 20.9381 54.7163 20.7341 54.6238 20.5483L54.6034 20.5074L54.576 20.4709C54.3623 20.1865 54.0774 19.9634 53.7501 19.8242C53.4227 19.6849 53.0645 19.6344 52.7114 19.6776Z" fill="white" stroke="white"/>
<path d="M37.9454 45.5095L38.3996 45.3005C33.6036 34.8777 29.5809 24.1162 26.3641 13.1031C25.4581 9.98942 24.6132 6.85657 23.8296 3.70453C23.7315 3.30486 23.4155 3.04361 23.1351 2.88904C22.8409 2.72687 22.492 2.62776 22.1655 2.59288C21.8514 2.55933 21.4835 2.57744 21.1856 2.727C21.0286 2.80578 20.8677 2.93365 20.769 3.13151C20.6915 3.28677 20.6688 3.45191 20.6853 3.61289L20.6719 3.6627L20.7031 3.78838C23.4947 15.0293 27.1074 26.0502 31.512 36.7624C32.7662 39.828 34.0887 42.8669 35.4797 45.8791L35.4814 45.8828C35.6451 46.2298 35.9815 46.4374 36.2698 46.5545C36.5743 46.6781 36.9246 46.7421 37.2473 46.7399C37.5494 46.738 37.9281 46.677 38.2017 46.4446C38.3519 46.317 38.4681 46.1378 38.5026 45.9128C38.5359 45.6963 38.4861 45.4862 38.3987 45.2985L37.9454 45.5095ZM37.9454 45.5095C38.4174 46.5232 36.2737 46.3904 35.9336 45.6695L23.3441 3.82429C24.1294 6.983 24.9761 10.1225 25.884 13.2428C29.1077 24.2796 33.1391 35.0643 37.9454 45.5095Z" fill="white" stroke="white"/>
</svg>
