<svg width="93" height="123" viewBox="0 0 93 123" fill="none" xmlns="http://www.w3.org/2000/svg">
<g clip-path="url(#clip0_19_275)">
<path d="M39.064 83.3295C39.7615 84.5319 90.2364 51.7927 91.1182 53.3236C91.8552 54.5982 50.0605 80.9971 50.6593 82.0221C51.2582 83.047 89.0255 58.6586 89.5651 59.5981C89.9731 60.2945 61.6691 80.1823 62.0244 80.7999C62.314 81.2993 85.5837 66.5756 85.8601 67.0552" stroke="#6231EB" stroke-width="0.659601" stroke-linecap="round" stroke-linejoin="round"/>
<path d="M13.6815 57.8109C13.7671 57.9554 19.4332 54.3353 19.499 54.4601C19.7293 54.8477 5.02119 67.4625 5.25152 67.8961C5.63321 68.5531 35.5232 49.2566 36.0629 50.1567C36.6025 51.0568 2.15197 73.8881 2.62579 74.7028C3.77085 76.6739 89.2029 21.5962 90.5914 24.0008C92.0721 26.5632 -0.00654602 78.139 1.50704 80.7605C2.8232 83.0272 90.1571 26.9377 91.3351 28.981C92.7302 31.3922 -0.0789044 84.0653 1.0859 86.0823C2.65213 88.7958 90.473 31.5894 91.7563 33.8167C93.1251 36.1754 -0.184234 89.709 1.00689 91.7655C2.50074 94.3476 90.4269 36.6615 91.9734 39.329C93.1053 41.3001 -0.585664 94.4198 1.00689 97.1464C2.59945 99.873 90.4335 42.1542 91.9471 44.7363C93.2632 47.0227 -0.493532 99.6694 1.00689 102.271C2.14537 104.242 90.0716 47.4826 91.572 50.0713C93.0724 52.6599 -0.421143 105.313 1.00689 107.79C1.53336 108.703 36.9447 85.8195 37.4909 86.7656C38.1029 87.8234 0.4212 112.389 1.00689 113.421C1.79659 114.781 46.6317 85.6815 47.2568 86.759C48.007 88.0731 0.184291 117.383 1.00689 118.808C1.82949 120.234 55.6671 85.1296 56.6082 86.759C57.2663 87.9022 3.38915 121.449 4.0604 122.619C5.12649 124.452 65.2619 85.0048 66.2819 86.7525C67.0651 88.1059 12.7273 121.049 13.6355 122.619C14.5436 124.189 74.9686 85.2216 75.857 86.7525C76.5151 87.9022 22.7039 121.298 23.4606 122.612C24.2174 123.926 84.9188 85.4121 85.6888 86.7459C86.4587 88.0796 31.8183 121.456 32.4895 122.612C33.4437 124.268 89.6965 87.4029 90.6639 89.1046C91.3219 90.2806 41.4657 121.298 42.2225 122.612C43.0517 124.045 89.6044 93.6446 90.3348 94.8798C90.8218 95.7142 50.9487 121.752 51.4488 122.606C52.0674 123.683 89.3806 99.262 90.0255 100.372C90.4598 101.121 60.5632 121.87 60.991 122.606C61.4187 123.342 89.2029 105.195 89.703 106.056C89.9992 106.568 69.6316 122.074 69.9606 122.606C70.2897 123.138 89.1568 110.937 89.4201 111.391C89.578 111.667 79.3909 122.33 79.5489 122.599C79.7068 122.869 88.966 116.87 89.0976 117.1C89.1569 117.205 88.3737 122.461 88.4395 122.599C88.4395 122.599 88.7751 122.396 88.7817 122.402" stroke="#6231EB" stroke-width="0.659601" stroke-linecap="round" stroke-linejoin="round"/>
<path d="M45.8025 30.893C46.3553 31.8588 82.4708 8.64643 82.9512 9.47427C83.4316 10.3021 51.2449 31.6222 51.7582 32.5158C52.2715 33.4093 85.5638 11.9906 86.0178 12.7659C86.4719 13.5412 52.1596 36.3134 52.6729 37.2069C53.1862 38.1004 87.8275 15.7882 88.3277 16.6554C88.9134 17.6672 50.8171 42.3579 51.3106 43.2515C51.8042 44.145 89.3148 19.9668 89.9137 20.9984" stroke="#6231EB" stroke-width="0.659601" stroke-linecap="round" stroke-linejoin="round"/>
<path d="M13.7212 8.35104C13.7935 8.48244 18.4594 5.46668 18.5252 5.58495C18.6963 5.88717 6.15322 17.8054 6.39671 18.2259C6.83104 18.9815 33.6281 1.53122 34.0361 2.28022C34.4112 2.93723 4.01447 23.5937 4.5212 24.461C5.10031 25.4728 43.4401 0.907015 43.9271 1.748C44.4996 2.74009 2.93524 28.9682 3.59332 30.1048C4.3896 31.478 52.2123 0.703327 52.8046 1.73484C53.5482 3.04887 2.36926 34.7171 3.07341 35.9457C4.02763 37.5948 60.5963 0.604787 61.5439 2.24076C62.3863 3.69933 2.06655 40.282 2.87599 41.6617C3.95525 43.5277 68.3156 1.66256 69.3027 3.37081C70.2898 5.07905 7.06795 42.4567 7.91688 43.9284C8.88425 45.5972 74.2844 3.29852 75.3175 5.07903C76.3507 6.85955 15.8336 42.8378 16.7484 44.3818C17.5578 45.7812 79.5424 5.99229 80.4901 7.63483C81.2995 9.03428 24.0991 43.2057 25.0204 44.8023C25.3034 45.2885 42.9071 33.9352 43.1506 34.3491C43.2953 34.5988 33.865 44.9928 34.023 45.2556C34.1809 45.5184 42.6175 39.9994 42.7491 40.2294C42.8807 40.4594 42.3608 45.571 42.4266 45.6892C42.4266 45.6892 42.7228 45.5053 42.7294 45.5118" stroke="#6231EB" stroke-width="0.659601" stroke-linecap="round" stroke-linejoin="round"/>
<path d="M47.6979 30.026C46.6927 29.9695 45.6902 30.1755 44.7892 30.6238C44.4039 30.8908 44.0765 31.2327 43.8266 31.629C43.5767 32.0252 43.4095 32.4677 43.3348 32.9299C43.008 34.4416 42.8361 35.9826 42.8215 37.529C42.7645 39.4694 42.736 41.9749 42.736 45.0454L2.86941 42.9955C2.86941 34.1126 3.61085 26.9095 5.09372 21.3862C6.5766 15.8629 9.05756 11.5923 12.5366 8.57438C16.0201 5.55648 20.7253 3.53508 26.6525 2.51013C32.5796 1.48519 39.9939 0.972656 48.8956 0.972656C57.9069 0.972656 65.2358 1.65595 70.8821 3.02254C76.5284 4.38914 80.9156 6.63834 84.0437 9.77011C87.1806 12.9019 89.2908 17.0302 90.3744 22.1549C91.4581 27.2797 91.9999 33.6001 91.9999 41.1164C91.9999 50.3409 90.6311 57.6009 87.8935 62.8964C85.1558 68.192 81.7053 72.1495 77.5419 74.7688C73.4629 77.3597 68.889 79.0759 64.1104 79.8081C59.3196 80.5527 54.8425 81.0652 50.679 81.3455C46.5133 81.628 43.065 82.0025 40.3274 82.3704C37.5897 82.7383 36.2209 83.9933 36.2209 86.0432H90.8022L88.749 121.916H0.987305V88.9471C0.987305 79.9504 2.27055 72.9422 4.83706 67.9226C7.40358 62.903 10.5975 59.1318 14.4187 56.6088C18.1715 54.0768 22.3864 52.3064 26.8236 51.3986C31.2722 50.4876 35.4071 49.6116 39.2284 48.7706C42.6057 48.0907 45.8447 46.8492 48.81 45.0979C51.3765 43.5035 52.6598 40.7704 52.6598 36.8983C52.6598 34.5068 52.3176 32.77 51.6332 31.6882C50.9488 30.6063 49.637 30.0523 47.6979 30.026Z" stroke="#6231EB" stroke-width="3" stroke-miterlimit="10"/>
</g>
<defs>
<clipPath id="clip0_19_275">
<rect width="93" height="123" fill="white"/>
</clipPath>
</defs>
</svg>
