<svg width="177" height="183" viewBox="0 0 177 183" fill="none" xmlns="http://www.w3.org/2000/svg">
<path d="M52.6028 152.72C81.6545 165.808 118.217 147.535 134.268 111.907C150.319 76.2781 139.779 36.7856 110.728 23.6977C81.6759 10.6098 45.1131 28.8827 29.0623 64.5112C13.0116 100.14 23.551 139.632 52.6028 152.72Z" stroke="#161616" stroke-width="3" stroke-linecap="round" stroke-linejoin="round"/>
<path d="M110.728 23.698L123.913 29.638C152.967 42.7271 163.505 82.2171 147.459 117.834C131.414 153.451 94.8543 171.724 65.8041 158.637L52.6144 152.695" stroke="#161616" stroke-width="3" stroke-linecap="round" stroke-linejoin="round"/>
<path d="M80.2259 58.3388L60.196 69.0124" stroke="#161616" stroke-width="3" stroke-linecap="round" stroke-linejoin="round"/>
<path d="M66.574 53.3662L73.1196 80.3068" stroke="#161616" stroke-width="3" stroke-linecap="round" stroke-linejoin="round"/>
<path d="M116.589 73.071C109.38 79.1055 100.835 83.332 91.6639 85.3992" stroke="#161616" stroke-width="3" stroke-linecap="round" stroke-linejoin="round"/>
<path d="M100.231 65.5388L107.396 95.1683" stroke="#161616" stroke-width="3" stroke-linecap="round" stroke-linejoin="round"/>
<path d="M62.1277 94.6904C70.2005 101.92 79.705 107.369 90.023 110.682C84.2074 110.564 78.3965 111.082 72.6932 112.225C66.947 113.382 61.7369 116.387 57.8576 120.781" stroke="#161616" stroke-width="3" stroke-linecap="round" stroke-linejoin="round"/>
<path d="M115.695 35.6831C119.544 37.9584 125.359 45.6193 128.587 53.9457C132.067 62.9216 133.58 72.7787 132.877 78.0804" stroke="#161616" stroke-width="3" stroke-linecap="round"/>
</svg>
